<?xml version="1.0" encoding="utf-8"?>
<!-- Generator: Adobe Illustrator 24.1.2, SVG Export Plug-In . SVG Version: 6.00 Build 0)  -->
<svg version="1.1" id="Capa_1" xmlns="http://www.w3.org/2000/svg" xmlns:xlink="http://www.w3.org/1999/xlink" x="0px" y="0px"
	 viewBox="0 0 64.4 68.5" style="enable-background:new 0 0 64.4 68.5;" xml:space="preserve">
<style type="text/css">
	.st0{fill:#D3D7DA;}
	.st1{fill:#FFFFFF;}
	.st2{fill:#FCDE60;}
	.st3{fill:#19BF5C;}
	.st4{fill:#2EA2DB;}
	.st5{fill:#F05545;}
	.st6{fill:none;stroke:#193651;stroke-width:1.1339;stroke-miterlimit:10;}
</style>
<path class="st0" d="M9.2,63.2L9.2,63.2c-2.8,0-5-2.3-5-5v-23h10v23C14.2,61,11.9,63.2,9.2,63.2z"/>
<rect x="14.2" y="5.2" class="st0" width="46" height="11"/>
<path class="st1" d="M14.2,40.2v7v11c0,2.8-2.3,5-5,5h5h6h35c2.8,0,5-2.2,5-5v-40h-46C14.2,18.2,14.2,40.2,14.2,40.2z"/>
<rect x="14.2" y="16.2" class="st2" width="46" height="2"/>
<rect x="20.2" y="21.2" class="st3" width="12" height="12"/>
<path class="st4" d="M54.2,22.2h-16c-0.6,0-1-0.4-1-1s0.4-1,1-1h16c0.6,0,1,0.4,1,1S54.7,22.2,54.2,22.2z"/>
<path class="st4" d="M54.2,28.2h-16c-0.6,0-1-0.4-1-1s0.4-1,1-1h16c0.6,0,1,0.4,1,1S54.7,28.2,54.2,28.2z"/>
<path class="st4" d="M54.2,34.2h-16c-0.6,0-1-0.4-1-1c0-0.6,0.4-1,1-1h16c0.6,0,1,0.4,1,1C55.2,33.8,54.7,34.2,54.2,34.2z"/>
<path class="st4" d="M54.2,40.2h-33c-0.6,0-1-0.4-1-1s0.4-1,1-1h33c0.6,0,1,0.4,1,1S54.7,40.2,54.2,40.2z"/>
<path class="st4" d="M36.2,46.2h-15c-0.6,0-1-0.4-1-1s0.4-1,1-1h15c0.6,0,1,0.4,1,1S36.7,46.2,36.2,46.2z"/>
<path class="st4" d="M36.2,52.2h-15c-0.6,0-1-0.4-1-1s0.4-1,1-1h15c0.6,0,1,0.4,1,1S36.7,52.2,36.2,52.2z"/>
<path class="st4" d="M36.2,58.2h-15c-0.6,0-1-0.4-1-1s0.4-1,1-1h15c0.6,0,1,0.4,1,1S36.7,58.2,36.2,58.2z"/>
<rect x="42.2" y="45.2" class="st5" width="12" height="12"/>
<rect x="26.2" y="9.2" class="st2" width="22" height="4"/>
<path class="st6" d="M14.2,5.2v11v2c0,0,0,11,0,17h-10v23c0,2.8,2.3,5,5,5h5h6h35c2.8,0,5-2.2,5-5v-40v-2v-11H14.2z"/>
<path class="st6" d="M14.2,35.2c0,0,0,18.8,0,21.3s-0.1,4.6-3.1,6.5"/>
</svg>
