<svg width="235" height="209" fill="none" xmlns="http://www.w3.org/2000/svg"><path d="M126 102.946L125 104l61.675 65C204.103 152.776 215 129.658 215 104s-10.897-48.776-28.325-65l-.088.093C170.701 24.558 149.114 15.313 126 15.008v87.938z" fill="#9F9F9F"/><path d="M126.495 0C68.742.245 22 46.937 22 104.5 22 162.214 68.988 209 126.951 209c27.897 0 53.251-10.838 72.049-28.515l-72.505-75.804V0z" fill="#3E3E3E"/><path d="M57.11 106.25v.54c.96-.75 2.25-1.11 3.81-1.11 1.02 0 1.86.09 2.58.3.72.18 1.29.42 1.68.78.42.33.69.75.93 1.35.24.57.39 1.11.45 1.68.06.54.09 1.26.09 2.1-.03.84-.09 1.53-.21 2.19-.09.63-.3 1.26-.63 1.98-.3.69-.75 1.26-1.29 1.71-.54.42-1.26.78-2.25 1.08-.96.3-2.13.45-3.45.45-1.05 0-1.98-.09-2.82-.27-.84-.18-1.53-.42-2.1-.69-.54-.3-1.02-.66-1.44-1.11-.39-.48-.69-.9-.93-1.35-.21-.48-.39-.99-.51-1.65-.12-.66-.15-1.23-.21-1.74-.03-.54-.06-1.14-.06-1.86v-3.06c0-.84 0-1.47.03-2.01.06-.54.09-1.14.21-1.86.12-.72.27-1.29.48-1.74.24-.48.54-.93.93-1.41.42-.51.9-.9 1.44-1.17.57-.3 1.26-.51 2.1-.69.84-.18 1.8-.27 2.88-.27 1.44 0 2.67.12 3.66.48 1.02.33 2.1.96 3.24 1.92l-2.82 4.17c-.72-.48-1.29-.78-1.83-.9-.51-.12-1.26-.18-2.25-.18-.66 0-1.11.18-1.35.54-.24.36-.36.96-.36 1.8zm1.77 4.05c-1.14 0-1.71.54-1.74 1.65.03.66.12 1.14.33 1.44.24.27.69.42 1.35.42.66 0 1.08-.12 1.26-.36.21-.27.33-.75.33-1.41 0-.6-.09-1.05-.33-1.32-.21-.3-.6-.42-1.2-.42zm15.546-.72h2.37v-5.28h5.67v5.28h1.44v5.19h-1.47V119h-5.64v-4.23h-8.79v-4.29l3.99-12h5.76l-3.33 11.1zm20.946-6.18v.78c0 .42.03.72 0 .96 0 .21-.03.51-.06.93 0 .39-.06.69-.12.93-.06.21-.12.48-.24.81-.12.3-.24.54-.42.75-.18.18-.36.39-.63.63-.24.21-.54.36-.87.48-.3.12-.66.21-1.14.3-.45.06-.96.12-1.5.12s-.99-.06-1.47-.12c-.45-.09-.81-.15-1.17-.27-.33-.12-.6-.3-.87-.51-.24-.24-.45-.42-.63-.6-.15-.21-.27-.48-.39-.78-.12-.33-.21-.6-.27-.81-.06-.24-.06-.54-.12-.93-.03-.42-.06-.72-.06-.93v-2.7c0-.24 0-.54.03-.93.06-.42.09-.72.15-.93.06-.24.12-.51.24-.81.12-.33.27-.57.42-.75.18-.21.36-.42.6-.63.27-.24.54-.36.87-.48.36-.12.72-.24 1.17-.3a8 8 0 011.5-.12c.54 0 1.02.03 1.47.12.48.06.87.15 1.17.27.33.12.6.27.84.51.27.21.45.39.63.6.18.18.3.45.42.78.12.3.21.57.27.81.06.21.12.51.12.93.03.39.03.69.03.93.03.21.03.54.03.96zm-1.05 16.11h-5.61l13.35-22.02h5.61l-13.35 22.02zm-3.75-18.24h-.27c-.24-.03-.39.06-.45.3-.06.21-.09.96-.09 2.22 0 1.2.03 1.92.06 2.16.06.24.18.36.39.36h.24c.3 0 .42-.09.48-.3.06-.24.09-.96.09-2.22 0-1.2 0-1.92-.06-2.16-.03-.24-.15-.36-.39-.36zm20.7 11.22v.78c0 .42.03.72 0 .96 0 .21-.03.51-.06.93 0 .39-.06.69-.12.93-.06.21-.12.48-.24.81-.12.3-.24.54-.42.75-.15.18-.36.39-.63.63-.24.21-.54.36-.87.48-.3.12-.66.21-1.14.3-.45.06-.96.12-1.5.12s-.99-.06-1.47-.12c-.45-.09-.84-.15-1.17-.27-.3-.12-.6-.3-.87-.51-.24-.24-.45-.42-.63-.6-.15-.21-.27-.48-.39-.78-.12-.33-.21-.6-.27-.81-.06-.24-.06-.54-.12-.93-.03-.42-.06-.72-.06-.93v-2.7c0-.24 0-.54.03-.93.06-.42.09-.72.15-.93.06-.24.12-.51.24-.81.12-.33.27-.57.42-.75.18-.21.39-.42.63-.63.27-.24.57-.36.87-.48.33-.12.69-.24 1.14-.3a8 8 0 011.5-.12c.54 0 1.02.03 1.47.12.48.06.87.15 1.17.27.33.12.63.27.87.51.27.21.48.39.63.6.18.18.27.45.39.78.12.3.21.57.27.81.06.21.12.51.12.93.03.39.03.69.03.93.03.21.03.54.03.96zm-4.8-2.13h-.27c-.24-.03-.39.06-.45.3-.06.21-.09.96-.09 2.22 0 1.2.03 1.92.06 2.16.06.24.18.36.39.36h.24c.3 0 .42-.09.48-.3.06-.24.09-.96.09-2.22 0-1.2 0-1.92-.06-2.16-.03-.24-.15-.36-.39-.36zm-51.389 25.809c-1.283 0-2.362-.416-3.237-1.248-.875-.832-1.313-1.915-1.313-3.25s.438-2.414 1.313-3.237c.875-.832 1.954-1.248 3.237-1.248 1.49 0 2.656.602 3.497 1.807l-1.248.702a2.82 2.82 0 00-.962-.832 2.602 2.602 0 00-1.287-.325c-.858 0-1.573.295-2.145.884-.563.589-.845 1.339-.845 2.249 0 .91.282 1.664.845 2.262.572.589 1.287.884 2.145.884.407 0 .793-.078 1.157-.234.373-.156.672-.338.897-.546v-1.352H54.55v-1.339h4.108v3.25c-.945 1.049-2.136 1.573-3.575 1.573zm7.953-.013c-.97 0-1.75-.316-2.34-.949-.589-.641-.884-1.426-.884-2.353 0-.927.295-1.707.884-2.34.59-.633 1.37-.949 2.34-.949.98 0 1.764.316 2.353.949.59.633.884 1.413.884 2.34 0 .936-.294 1.72-.884 2.353-.589.633-1.373.949-2.353.949zm0-1.209c.564 0 1.006-.199 1.326-.598.33-.407.494-.906.494-1.495 0-.581-.164-1.07-.494-1.469-.32-.407-.762-.611-1.326-.611-.554 0-.996.204-1.326.611-.32.399-.48.888-.48 1.469 0 .589.16 1.088.48 1.495.33.399.772.598 1.326.598zM70.775 136h-1.47l-2.56-6.279H68.2l1.833 4.706 1.832-4.706h1.47L70.774 136zm6.317.156c-.954 0-1.742-.303-2.366-.91-.616-.615-.923-1.413-.923-2.392 0-.919.299-1.694.897-2.327.606-.641 1.369-.962 2.288-.962.927 0 1.672.321 2.236.962.572.641.858 1.46.858 2.457v.325h-4.85c.053.494.256.906.612 1.235.355.329.819.494 1.39.494.321 0 .642-.061.963-.182.329-.121.602-.29.819-.507l.624.897c-.633.607-1.482.91-2.548.91zm1.664-3.809a1.797 1.797 0 00-.481-1.157c-.295-.338-.724-.507-1.287-.507-.538 0-.958.169-1.261.507a1.88 1.88 0 00-.507 1.157h3.536zM82.794 136h-1.365v-6.279h1.365v.923a2.9 2.9 0 01.91-.767 2.329 2.329 0 011.13-.299v1.352a2.07 2.07 0 00-.428-.039c-.286 0-.594.087-.923.26-.32.165-.55.355-.69.572V136zm12.203 0h-1.365v-4.095c0-.754-.343-1.131-1.027-1.131-.286 0-.564.082-.832.247-.269.165-.477.36-.624.585V136h-1.365v-4.095c0-.754-.347-1.131-1.04-1.131-.278 0-.55.082-.82.247-.26.165-.467.364-.623.598V136h-1.365v-6.279H87.3v.858c.156-.234.424-.459.806-.676.39-.225.801-.338 1.235-.338.91 0 1.482.386 1.716 1.157.2-.312.494-.581.884-.806.39-.234.806-.351 1.248-.351 1.204 0 1.807.633 1.807 1.898V136zm4.667.156c-.954 0-1.742-.303-2.366-.91-.615-.615-.923-1.413-.923-2.392 0-.919.299-1.694.897-2.327.606-.641 1.37-.962 2.288-.962.927 0 1.673.321 2.236.962.572.641.858 1.46.858 2.457v.325h-4.85c.053.494.257.906.612 1.235.355.329.819.494 1.39.494.322 0 .642-.061.963-.182.329-.121.602-.29.819-.507l.624.897c-.633.607-1.482.91-2.548.91zm1.664-3.809a1.797 1.797 0 00-.481-1.157c-.295-.338-.724-.507-1.287-.507-.538 0-.958.169-1.261.507a1.879 1.879 0 00-.507 1.157h3.536zm8.276 3.653h-1.365v-3.926c0-.867-.42-1.3-1.261-1.3-.329 0-.637.082-.923.247a2.232 2.232 0 00-.689.598V136h-1.365v-6.279h1.365v.858c.234-.277.546-.516.936-.715.39-.199.815-.299 1.274-.299.668 0 1.17.173 1.508.52.347.347.52.845.52 1.495V136zm3.658.156c-.529 0-.932-.139-1.209-.416-.269-.277-.403-.676-.403-1.196v-3.627h-1.04v-1.196h1.04v-1.716h1.365v1.716h1.274v1.196h-1.274v3.289c0 .225.052.407.156.546.104.13.251.195.442.195.277 0 .481-.074.611-.221l.325 1.027c-.286.269-.715.403-1.287.403z" fill="#E2DBDB"/><path d="M3.09 132H1.92v-5.15l-1.09 1.13-.68-.71 1.92-1.94h1.02V132zm231.24-71h-4.83v-.92c1.393-1.053 2.34-1.833 2.84-2.34.507-.513.76-.997.76-1.45 0-.327-.12-.577-.36-.75a1.35 1.35 0 00-.85-.27c-.733 0-1.333.267-1.8.8l-.68-.77c.287-.347.647-.61 1.08-.79.44-.187.9-.28 1.38-.28.68 0 1.253.183 1.72.55.467.367.7.87.7 1.51 0 .573-.24 1.143-.72 1.71s-1.213 1.223-2.2 1.97h2.96V61z" fill="#000"/></svg>