<svg width="2" height="200" fill="none" xmlns="http://www.w3.org/2000/svg"><path d="M0 .05a1 1 0 002 0H0zm2 9.9a1 1 0 00-2 0h2zm-2 .1a1 1 0 102 0H0zm2 9.9a1 1 0 10-2 0h2zm-2 .1a1 1 0 102 0H0zm2 9.9a1 1 0 10-2 0h2zm-2 .1a1 1 0 102 0H0zm2 9.9a1 1 0 10-2 0h2zm-2 .1a1 1 0 102 0H0zm2 9.9a1 1 0 10-2 0h2zm-2 .1a1 1 0 102 0H0zm2 9.9a1 1 0 10-2 0h2zm-2 .1a1 1 0 102 0H0zm2 9.9a1 1 0 10-2 0h2zm-2 .1a1 1 0 102 0H0zm2 9.9a1 1 0 10-2 0h2zm-2 .1a1 1 0 102 0H0zm2 9.9a1 1 0 10-2 0h2zm-2 .1a1 1 0 102 0H0zm2 9.9a1 1 0 10-2 0h2zm-2 .099a1 1 0 102 0H0zm2 9.901a1 1 0 00-2 0h2zm-2 .099a1 1 0 102 0H0zm2 9.901a1 1 0 00-2 0h2zm-2 .099a1 1 0 102 0H0zm2 9.901a1 1 0 00-2 0h2zm-2 .1a1 1 0 002 0H0zm2 9.9a1 1 0 00-2 0h2zm-2 .1a1 1 0 002 0H0zm2 9.9a1 1 0 00-2 0h2zm-2 .099a1 1 0 102 0H0zm2 9.901a1 1 0 00-2 0h2zm-2 .099a1 1 0 102 0H0zm2 9.901a1 1 0 00-2 0h2zm-2 .1a1 1 0 002 0H0zm2 9.9a1 1 0 00-2 0h2zm-2 .1a1 1 0 002 0H0zm2 9.9a1 1 0 00-2 0h2zm-2 .1a1 1 0 002 0H0zm2 9.9a1 1 0 00-2 0h2zM0 0v.05h2V0H0zm0 9.95v.1h2v-.1H0zm0 10v.1h2v-.1H0zm0 10v.1h2v-.1H0zm0 10v.1h2v-.1H0zm0 10v.1h2v-.1H0zm0 10v.1h2v-.1H0zm0 10v.1h2v-.1H0zm0 10v.1h2v-.1H0zm0 10v.1h2v-.1H0zm0 10v.099h2v-.099H0zm0 10v.099h2v-.099H0zm0 10v.099h2v-.099H0zm0 10v.1h2v-.1H0zm0 10v.1h2v-.1H0zm0 10v.099h2v-.099H0zm0 10v.099h2v-.099H0zm0 10v.1h2v-.1H0zm0 10v.1h2v-.1H0zm0 10v.1h2v-.1H0zm0 10v.05h2v-.05H0z" fill="#A9A8A8"/></svg>