<svg xmlns="http://www.w3.org/2000/svg" width="21" height="21"><defs><clipPath id="rjzha"><path fill="#fff" d="M10.5 0C16.299 0 21 4.7 21 10.5 21 16.299 16.299 21 10.5 21 4.7 21 0 16.299 0 10.5 0 4.7 4.7 0 10.5 0z"/></clipPath></defs><path fill="none" stroke="#fff" stroke-miterlimit="50" stroke-width="2" d="M10.5 0C16.299 0 21 4.7 21 10.5 21 16.299 16.299 21 10.5 21 4.7 21 0 16.299 0 10.5 0 4.7 4.7 0 10.5 0z" clip-path="url(&quot;#rjzha&quot;)"/><path fill="#fff" d="M4 10h6V4h1v6h6v1h-6v6h-1v-6H4z"/></svg>