<svg width="295" height="262" viewBox="0 0 295 262" fill="none" xmlns="http://www.w3.org/2000/svg">
<path d="M158.256 129.218L157 130.539L234.437 212C256.319 191.667 270 162.694 270 130.539C270 98.3836 256.319 69.4105 234.437 49.0779L234.326 49.1942C214.38 30.9785 187.277 19.3923 158.256 19.0101V129.218Z" fill="#9F9F9F"/>
<path d="M159.061 0C86.6252 0.306852 28 58.8397 28 130.999C28 203.349 86.9343 262 159.633 262C194.623 262 226.423 248.414 250 226.254L159.061 131.227V0Z" fill="#3E3E3E"/>
<path d="M70.11 129.25V129.79C71.07 129.04 72.36 128.68 73.92 128.68C74.94 128.68 75.78 128.77 76.5 128.98C77.22 129.16 77.79 129.4 78.18 129.76C78.6 130.09 78.87 130.51 79.11 131.11C79.35 131.68 79.5 132.22 79.56 132.79C79.62 133.33 79.65 134.05 79.65 134.89C79.62 135.73 79.56 136.42 79.44 137.08C79.35 137.71 79.14 138.34 78.81 139.06C78.51 139.75 78.06 140.32 77.52 140.77C76.98 141.19 76.26 141.55 75.27 141.85C74.31 142.15 73.14 142.3 71.82 142.3C70.77 142.3 69.84 142.21 69 142.03C68.16 141.85 67.47 141.61 66.9 141.34C66.36 141.04 65.88 140.68 65.46 140.23C65.07 139.75 64.77 139.33 64.53 138.88C64.32 138.4 64.14 137.89 64.02 137.23C63.9 136.57 63.87 136 63.81 135.49C63.78 134.95 63.75 134.35 63.75 133.63C63.75 133.42 63.75 133.15 63.75 132.76C63.75 132.34 63.75 132.04 63.75 131.86C63.75 131.71 63.75 131.53 63.75 131.23C63.75 130.93 63.75 130.69 63.75 130.57C63.75 129.73 63.75 129.1 63.78 128.56C63.84 128.02 63.87 127.42 63.99 126.7C64.11 125.98 64.26 125.41 64.47 124.96C64.71 124.48 65.01 124.03 65.4 123.55C65.82 123.04 66.3 122.65 66.84 122.38C67.41 122.08 68.1 121.87 68.94 121.69C69.78 121.51 70.74 121.42 71.82 121.42C73.26 121.42 74.49 121.54 75.48 121.9C76.5 122.23 77.58 122.86 78.72 123.82L75.9 127.99C75.18 127.51 74.61 127.21 74.07 127.09C73.56 126.97 72.81 126.91 71.82 126.91C71.16 126.91 70.71 127.09 70.47 127.45C70.23 127.81 70.11 128.41 70.11 129.25ZM71.88 133.3C70.74 133.3 70.17 133.84 70.14 134.95C70.17 135.61 70.26 136.09 70.47 136.39C70.71 136.66 71.16 136.81 71.82 136.81C72.48 136.81 72.9 136.69 73.08 136.45C73.29 136.18 73.41 135.7 73.41 135.04C73.41 134.44 73.32 133.99 73.08 133.72C72.87 133.42 72.48 133.3 71.88 133.3ZM87.4259 132.58H89.7959V127.3H95.4659V132.58H96.9059V137.77H95.4359V142H89.7959V137.77H81.0059V133.48L84.9959 121.48H90.7559L87.4259 132.58ZM108.372 126.4C108.372 126.58 108.372 126.7 108.372 126.79C108.372 126.85 108.372 127 108.372 127.18C108.372 127.6 108.402 127.9 108.372 128.14C108.372 128.35 108.342 128.65 108.312 129.07C108.312 129.46 108.252 129.76 108.192 130C108.132 130.21 108.072 130.48 107.952 130.81C107.832 131.11 107.712 131.35 107.532 131.56C107.352 131.74 107.172 131.95 106.902 132.19C106.662 132.4 106.362 132.55 106.032 132.67C105.732 132.79 105.372 132.88 104.892 132.97C104.442 133.03 103.932 133.09 103.392 133.09C102.852 133.09 102.402 133.03 101.922 132.97C101.472 132.88 101.112 132.82 100.752 132.7C100.422 132.58 100.152 132.4 99.8817 132.19C99.6417 131.95 99.4317 131.77 99.2517 131.59C99.1017 131.38 98.9817 131.11 98.8617 130.81C98.7417 130.48 98.6517 130.21 98.5917 130C98.5317 129.76 98.5317 129.46 98.4717 129.07C98.4417 128.65 98.4117 128.35 98.4117 128.14C98.4117 127.9 98.4117 127.6 98.4117 127.18C98.4117 127 98.4117 126.85 98.4117 126.79C98.4117 126.7 98.4117 126.58 98.4117 126.4C98.4117 125.98 98.4117 125.65 98.4117 125.44C98.4117 125.2 98.4117 124.9 98.4417 124.51C98.5017 124.09 98.5317 123.79 98.5917 123.58C98.6517 123.34 98.7117 123.07 98.8317 122.77C98.9517 122.44 99.1017 122.2 99.2517 122.02C99.4317 121.81 99.6117 121.6 99.8517 121.39C100.122 121.15 100.392 121.03 100.722 120.91C101.082 120.79 101.442 120.67 101.892 120.61C102.372 120.52 102.852 120.49 103.392 120.49C103.932 120.49 104.412 120.52 104.862 120.61C105.342 120.67 105.732 120.76 106.032 120.88C106.362 121 106.632 121.15 106.872 121.39C107.142 121.6 107.322 121.78 107.502 121.99C107.682 122.17 107.802 122.44 107.922 122.77C108.042 123.07 108.132 123.34 108.192 123.58C108.252 123.79 108.312 124.09 108.312 124.51C108.342 124.9 108.342 125.2 108.342 125.44C108.372 125.65 108.372 125.98 108.372 126.4ZM107.322 142.51H101.712L115.062 120.49H120.672L107.322 142.51ZM103.572 124.27C103.512 124.27 103.422 124.27 103.302 124.27C103.062 124.24 102.912 124.33 102.852 124.57C102.792 124.78 102.762 125.53 102.762 126.79C102.762 127.99 102.792 128.71 102.822 128.95C102.882 129.19 103.002 129.31 103.212 129.31C103.272 129.31 103.362 129.31 103.452 129.31C103.752 129.31 103.872 129.22 103.932 129.01C103.992 128.77 104.022 128.05 104.022 126.79C104.022 125.59 104.022 124.87 103.962 124.63C103.932 124.39 103.812 124.27 103.572 124.27ZM124.272 135.49C124.272 135.67 124.272 135.79 124.272 135.88C124.272 135.94 124.272 136.09 124.272 136.27C124.272 136.69 124.302 136.99 124.272 137.23C124.272 137.44 124.242 137.74 124.212 138.16C124.212 138.55 124.152 138.85 124.092 139.09C124.032 139.3 123.972 139.57 123.852 139.9C123.732 140.2 123.612 140.44 123.432 140.65C123.282 140.83 123.072 141.04 122.802 141.28C122.562 141.49 122.262 141.64 121.932 141.76C121.632 141.88 121.272 141.97 120.792 142.06C120.342 142.12 119.832 142.18 119.292 142.18C118.752 142.18 118.302 142.12 117.822 142.06C117.372 141.97 116.982 141.91 116.652 141.79C116.352 141.67 116.052 141.49 115.782 141.28C115.542 141.04 115.332 140.86 115.152 140.68C115.002 140.47 114.882 140.2 114.762 139.9C114.642 139.57 114.552 139.3 114.492 139.09C114.432 138.85 114.432 138.55 114.372 138.16C114.342 137.74 114.312 137.44 114.312 137.23C114.312 136.99 114.312 136.69 114.312 136.27C114.312 136.09 114.312 135.94 114.312 135.88C114.312 135.79 114.312 135.67 114.312 135.49C114.312 135.07 114.312 134.74 114.312 134.53C114.312 134.29 114.312 133.99 114.342 133.6C114.402 133.18 114.432 132.88 114.492 132.67C114.552 132.43 114.612 132.16 114.732 131.86C114.852 131.53 115.002 131.29 115.152 131.11C115.332 130.9 115.542 130.69 115.782 130.48C116.052 130.24 116.352 130.12 116.652 130C116.982 129.88 117.342 129.76 117.792 129.7C118.272 129.61 118.752 129.58 119.292 129.58C119.832 129.58 120.312 129.61 120.762 129.7C121.242 129.76 121.632 129.85 121.932 129.97C122.262 130.09 122.562 130.24 122.802 130.48C123.072 130.69 123.282 130.87 123.432 131.08C123.612 131.26 123.702 131.53 123.822 131.86C123.942 132.16 124.032 132.43 124.092 132.67C124.152 132.88 124.212 133.18 124.212 133.6C124.242 133.99 124.242 134.29 124.242 134.53C124.272 134.74 124.272 135.07 124.272 135.49ZM119.472 133.36C119.412 133.36 119.322 133.36 119.202 133.36C118.962 133.33 118.812 133.42 118.752 133.66C118.692 133.87 118.662 134.62 118.662 135.88C118.662 137.08 118.692 137.8 118.722 138.04C118.782 138.28 118.902 138.4 119.112 138.4C119.172 138.4 119.262 138.4 119.352 138.4C119.652 138.4 119.772 138.31 119.832 138.1C119.892 137.86 119.922 137.14 119.922 135.88C119.922 134.68 119.922 133.96 119.862 133.72C119.832 133.48 119.712 133.36 119.472 133.36Z" fill="#E2DBDB"/>
<path d="M68.083 167.169C66.8003 167.169 65.7213 166.753 64.846 165.921C63.9707 165.089 63.533 164.006 63.533 162.671C63.533 161.336 63.9707 160.257 64.846 159.434C65.7213 158.602 66.8003 158.186 68.083 158.186C69.5737 158.186 70.7393 158.788 71.58 159.993L70.332 160.695C70.0893 160.357 69.7687 160.08 69.37 159.863C68.98 159.646 68.551 159.538 68.083 159.538C67.225 159.538 66.51 159.833 65.938 160.422C65.3747 161.011 65.093 161.761 65.093 162.671C65.093 163.581 65.3747 164.335 65.938 164.933C66.51 165.522 67.225 165.817 68.083 165.817C68.4903 165.817 68.876 165.739 69.24 165.583C69.6127 165.427 69.9117 165.245 70.137 165.037V163.685H67.55V162.346H71.658V165.596C70.7133 166.645 69.5217 167.169 68.083 167.169ZM76.0364 167.156C75.0657 167.156 74.2857 166.84 73.6964 166.207C73.107 165.566 72.8124 164.781 72.8124 163.854C72.8124 162.927 73.107 162.147 73.6964 161.514C74.2857 160.881 75.0657 160.565 76.0364 160.565C77.0157 160.565 77.8 160.881 78.3894 161.514C78.9787 162.147 79.2734 162.927 79.2734 163.854C79.2734 164.79 78.9787 165.574 78.3894 166.207C77.8 166.84 77.0157 167.156 76.0364 167.156ZM76.0364 165.947C76.5997 165.947 77.0417 165.748 77.3624 165.349C77.6917 164.942 77.8564 164.443 77.8564 163.854C77.8564 163.273 77.6917 162.784 77.3624 162.385C77.0417 161.978 76.5997 161.774 76.0364 161.774C75.4817 161.774 75.0397 161.978 74.7104 162.385C74.3897 162.784 74.2294 163.273 74.2294 163.854C74.2294 164.443 74.3897 164.942 74.7104 165.349C75.0397 165.748 75.4817 165.947 76.0364 165.947ZM83.7745 167H82.3055L79.7445 160.721H81.2005L83.0335 165.427L84.8665 160.721H86.3355L83.7745 167ZM90.0916 167.156C89.1383 167.156 88.3496 166.853 87.7256 166.246C87.1103 165.631 86.8026 164.833 86.8026 163.854C86.8026 162.935 87.1016 162.16 87.6996 161.527C88.3063 160.886 89.0689 160.565 89.9876 160.565C90.9149 160.565 91.6603 160.886 92.2236 161.527C92.7956 162.168 93.0816 162.987 93.0816 163.984V164.309H88.2326C88.2846 164.803 88.4883 165.215 88.8436 165.544C89.1989 165.873 89.6626 166.038 90.2346 166.038C90.5553 166.038 90.8759 165.977 91.1966 165.856C91.5259 165.735 91.7989 165.566 92.0156 165.349L92.6396 166.246C92.0069 166.853 91.1576 167.156 90.0916 167.156ZM91.7556 163.347C91.7383 162.914 91.5779 162.528 91.2746 162.19C90.9799 161.852 90.5509 161.683 89.9876 161.683C89.4503 161.683 89.0299 161.852 88.7266 162.19C88.4233 162.519 88.2543 162.905 88.2196 163.347H91.7556ZM95.7939 167H94.4289V160.721H95.7939V161.644C96.0366 161.332 96.3399 161.076 96.7039 160.877C97.0679 160.678 97.4449 160.578 97.8349 160.578V161.93C97.7136 161.904 97.5706 161.891 97.4059 161.891C97.1199 161.891 96.8123 161.978 96.4829 162.151C96.1623 162.316 95.9326 162.506 95.7939 162.723V167ZM107.997 167H106.632V162.905C106.632 162.151 106.289 161.774 105.605 161.774C105.319 161.774 105.041 161.856 104.773 162.021C104.504 162.186 104.296 162.381 104.149 162.606V167H102.784V162.905C102.784 162.151 102.437 161.774 101.744 161.774C101.466 161.774 101.193 161.856 100.925 162.021C100.665 162.186 100.457 162.385 100.301 162.619V167H98.9358V160.721H100.301V161.579C100.457 161.345 100.725 161.12 101.107 160.903C101.497 160.678 101.908 160.565 102.342 160.565C103.252 160.565 103.824 160.951 104.058 161.722C104.257 161.41 104.552 161.141 104.942 160.916C105.332 160.682 105.748 160.565 106.19 160.565C107.394 160.565 107.997 161.198 107.997 162.463V167ZM112.664 167.156C111.711 167.156 110.922 166.853 110.298 166.246C109.683 165.631 109.375 164.833 109.375 163.854C109.375 162.935 109.674 162.16 110.272 161.527C110.879 160.886 111.641 160.565 112.56 160.565C113.487 160.565 114.233 160.886 114.796 161.527C115.368 162.168 115.654 162.987 115.654 163.984V164.309H110.805C110.857 164.803 111.061 165.215 111.416 165.544C111.771 165.873 112.235 166.038 112.807 166.038C113.128 166.038 113.448 165.977 113.769 165.856C114.098 165.735 114.371 165.566 114.588 165.349L115.212 166.246C114.579 166.853 113.73 167.156 112.664 167.156ZM114.328 163.347C114.311 162.914 114.15 162.528 113.847 162.19C113.552 161.852 113.123 161.683 112.56 161.683C112.023 161.683 111.602 161.852 111.299 162.19C110.996 162.519 110.827 162.905 110.792 163.347H114.328ZM122.604 167H121.239V163.074C121.239 162.207 120.819 161.774 119.978 161.774C119.649 161.774 119.341 161.856 119.055 162.021C118.769 162.186 118.54 162.385 118.366 162.619V167H117.001V160.721H118.366V161.579C118.6 161.302 118.912 161.063 119.302 160.864C119.692 160.665 120.117 160.565 120.576 160.565C121.244 160.565 121.746 160.738 122.084 161.085C122.431 161.432 122.604 161.93 122.604 162.58V167ZM126.262 167.156C125.733 167.156 125.33 167.017 125.053 166.74C124.784 166.463 124.65 166.064 124.65 165.544V161.917H123.61V160.721H124.65V159.005H126.015V160.721H127.289V161.917H126.015V165.206C126.015 165.431 126.067 165.613 126.171 165.752C126.275 165.882 126.422 165.947 126.613 165.947C126.89 165.947 127.094 165.873 127.224 165.726L127.549 166.753C127.263 167.022 126.834 167.156 126.262 167.156Z" fill="#E2DBDB"/>
<path d="M3.09 163H1.92V157.85L0.83 158.98L0.15 158.27L2.07 156.33H3.09V163Z" fill="black"/>
<path d="M292.33 74H287.5V73.08C288.893 72.0267 289.84 71.2467 290.34 70.74C290.847 70.2267 291.1 69.7433 291.1 69.29C291.1 68.9633 290.98 68.7133 290.74 68.54C290.507 68.36 290.223 68.27 289.89 68.27C289.157 68.27 288.557 68.5367 288.09 69.07L287.41 68.3C287.697 67.9533 288.057 67.69 288.49 67.51C288.93 67.3233 289.39 67.23 289.87 67.23C290.55 67.23 291.123 67.4133 291.59 67.78C292.057 68.1467 292.29 68.65 292.29 69.29C292.29 69.8633 292.05 70.4333 291.57 71C291.09 71.5667 290.357 72.2233 289.37 72.97H292.33V74Z" fill="black"/>
</svg>
