<svg width="235" height="209" viewBox="0 0 235 209" fill="none" xmlns="http://www.w3.org/2000/svg">
<path d="M126 102.946L125 104L186.675 169C204.103 152.776 215 129.658 215 104C215 78.3424 204.103 55.2239 186.675 39L186.587 39.0928C170.701 24.5579 149.114 15.313 126 15.008V102.946Z" fill="#9F9F9F"/>
<path d="M126.495 0C68.7417 0.244779 22 46.937 22 104.5C22 162.214 68.9881 209 126.951 209C154.848 209 180.202 198.162 199 180.485L126.495 104.681V0Z" fill="#3E3E3E"/>
<path d="M57.11 106.25V106.79C58.07 106.04 59.36 105.68 60.92 105.68C61.94 105.68 62.78 105.77 63.5 105.98C64.22 106.16 64.79 106.4 65.18 106.76C65.6 107.09 65.87 107.51 66.11 108.11C66.35 108.68 66.5 109.22 66.56 109.79C66.62 110.33 66.65 111.05 66.65 111.89C66.62 112.73 66.56 113.42 66.44 114.08C66.35 114.71 66.14 115.34 65.81 116.06C65.51 116.75 65.06 117.32 64.52 117.77C63.98 118.19 63.26 118.55 62.27 118.85C61.31 119.15 60.14 119.3 58.82 119.3C57.77 119.3 56.84 119.21 56 119.03C55.16 118.85 54.47 118.61 53.9 118.34C53.36 118.04 52.88 117.68 52.46 117.23C52.07 116.75 51.77 116.33 51.53 115.88C51.32 115.4 51.14 114.89 51.02 114.23C50.9 113.57 50.87 113 50.81 112.49C50.78 111.95 50.75 111.35 50.75 110.63C50.75 110.42 50.75 110.15 50.75 109.76C50.75 109.34 50.75 109.04 50.75 108.86C50.75 108.71 50.75 108.53 50.75 108.23C50.75 107.93 50.75 107.69 50.75 107.57C50.75 106.73 50.75 106.1 50.78 105.56C50.84 105.02 50.87 104.42 50.99 103.7C51.11 102.98 51.26 102.41 51.47 101.96C51.71 101.48 52.01 101.03 52.4 100.55C52.82 100.04 53.3 99.65 53.84 99.38C54.41 99.08 55.1 98.87 55.94 98.69C56.78 98.51 57.74 98.42 58.82 98.42C60.26 98.42 61.49 98.54 62.48 98.9C63.5 99.23 64.58 99.86 65.72 100.82L62.9 104.99C62.18 104.51 61.61 104.21 61.07 104.09C60.56 103.97 59.81 103.91 58.82 103.91C58.16 103.91 57.71 104.09 57.47 104.45C57.23 104.81 57.11 105.41 57.11 106.25ZM58.88 110.3C57.74 110.3 57.17 110.84 57.14 111.95C57.17 112.61 57.26 113.09 57.47 113.39C57.71 113.66 58.16 113.81 58.82 113.81C59.48 113.81 59.9 113.69 60.08 113.45C60.29 113.18 60.41 112.7 60.41 112.04C60.41 111.44 60.32 110.99 60.08 110.72C59.87 110.42 59.48 110.3 58.88 110.3ZM74.4259 109.58H76.7959V104.3H82.4659V109.58H83.9059V114.77H82.4359V119H76.7959V114.77H68.0059V110.48L71.9959 98.48H77.7559L74.4259 109.58ZM95.3717 103.4C95.3717 103.58 95.3717 103.7 95.3717 103.79C95.3717 103.85 95.3717 104 95.3717 104.18C95.3717 104.6 95.4017 104.9 95.3717 105.14C95.3717 105.35 95.3417 105.65 95.3117 106.07C95.3117 106.46 95.2517 106.76 95.1917 107C95.1317 107.21 95.0717 107.48 94.9517 107.81C94.8317 108.11 94.7117 108.35 94.5317 108.56C94.3517 108.74 94.1717 108.95 93.9017 109.19C93.6617 109.4 93.3617 109.55 93.0317 109.67C92.7317 109.79 92.3717 109.88 91.8917 109.97C91.4417 110.03 90.9317 110.09 90.3917 110.09C89.8517 110.09 89.4017 110.03 88.9217 109.97C88.4717 109.88 88.1117 109.82 87.7517 109.7C87.4217 109.58 87.1517 109.4 86.8817 109.19C86.6417 108.95 86.4317 108.77 86.2517 108.59C86.1017 108.38 85.9817 108.11 85.8617 107.81C85.7417 107.48 85.6517 107.21 85.5917 107C85.5317 106.76 85.5317 106.46 85.4717 106.07C85.4417 105.65 85.4117 105.35 85.4117 105.14C85.4117 104.9 85.4117 104.6 85.4117 104.18C85.4117 104 85.4117 103.85 85.4117 103.79C85.4117 103.7 85.4117 103.58 85.4117 103.4C85.4117 102.98 85.4117 102.65 85.4117 102.44C85.4117 102.2 85.4117 101.9 85.4417 101.51C85.5017 101.09 85.5317 100.79 85.5917 100.58C85.6517 100.34 85.7117 100.07 85.8317 99.77C85.9517 99.44 86.1017 99.2 86.2517 99.02C86.4317 98.81 86.6117 98.6 86.8517 98.39C87.1217 98.15 87.3917 98.03 87.7217 97.91C88.0817 97.79 88.4417 97.67 88.8917 97.61C89.3717 97.52 89.8517 97.49 90.3917 97.49C90.9317 97.49 91.4117 97.52 91.8617 97.61C92.3417 97.67 92.7317 97.76 93.0317 97.88C93.3617 98 93.6317 98.15 93.8717 98.39C94.1417 98.6 94.3217 98.78 94.5017 98.99C94.6817 99.17 94.8017 99.44 94.9217 99.77C95.0417 100.07 95.1317 100.34 95.1917 100.58C95.2517 100.79 95.3117 101.09 95.3117 101.51C95.3417 101.9 95.3417 102.2 95.3417 102.44C95.3717 102.65 95.3717 102.98 95.3717 103.4ZM94.3217 119.51H88.7117L102.062 97.49H107.672L94.3217 119.51ZM90.5717 101.27C90.5117 101.27 90.4217 101.27 90.3017 101.27C90.0617 101.24 89.9117 101.33 89.8517 101.57C89.7917 101.78 89.7617 102.53 89.7617 103.79C89.7617 104.99 89.7917 105.71 89.8217 105.95C89.8817 106.19 90.0017 106.31 90.2117 106.31C90.2717 106.31 90.3617 106.31 90.4517 106.31C90.7517 106.31 90.8717 106.22 90.9317 106.01C90.9917 105.77 91.0217 105.05 91.0217 103.79C91.0217 102.59 91.0217 101.87 90.9617 101.63C90.9317 101.39 90.8117 101.27 90.5717 101.27ZM111.272 112.49C111.272 112.67 111.272 112.79 111.272 112.88C111.272 112.94 111.272 113.09 111.272 113.27C111.272 113.69 111.302 113.99 111.272 114.23C111.272 114.44 111.242 114.74 111.212 115.16C111.212 115.55 111.152 115.85 111.092 116.09C111.032 116.3 110.972 116.57 110.852 116.9C110.732 117.2 110.612 117.44 110.432 117.65C110.282 117.83 110.072 118.04 109.802 118.28C109.562 118.49 109.262 118.64 108.932 118.76C108.632 118.88 108.272 118.97 107.792 119.06C107.342 119.12 106.832 119.18 106.292 119.18C105.752 119.18 105.302 119.12 104.822 119.06C104.372 118.97 103.982 118.91 103.652 118.79C103.352 118.67 103.052 118.49 102.782 118.28C102.542 118.04 102.332 117.86 102.152 117.68C102.002 117.47 101.882 117.2 101.762 116.9C101.642 116.57 101.552 116.3 101.492 116.09C101.432 115.85 101.432 115.55 101.372 115.16C101.342 114.74 101.312 114.44 101.312 114.23C101.312 113.99 101.312 113.69 101.312 113.27C101.312 113.09 101.312 112.94 101.312 112.88C101.312 112.79 101.312 112.67 101.312 112.49C101.312 112.07 101.312 111.74 101.312 111.53C101.312 111.29 101.312 110.99 101.342 110.6C101.402 110.18 101.432 109.88 101.492 109.67C101.552 109.43 101.612 109.16 101.732 108.86C101.852 108.53 102.002 108.29 102.152 108.11C102.332 107.9 102.542 107.69 102.782 107.48C103.052 107.24 103.352 107.12 103.652 107C103.982 106.88 104.342 106.76 104.792 106.7C105.272 106.61 105.752 106.58 106.292 106.58C106.832 106.58 107.312 106.61 107.762 106.7C108.242 106.76 108.632 106.85 108.932 106.97C109.262 107.09 109.562 107.24 109.802 107.48C110.072 107.69 110.282 107.87 110.432 108.08C110.612 108.26 110.702 108.53 110.822 108.86C110.942 109.16 111.032 109.43 111.092 109.67C111.152 109.88 111.212 110.18 111.212 110.6C111.242 110.99 111.242 111.29 111.242 111.53C111.272 111.74 111.272 112.07 111.272 112.49ZM106.472 110.36C106.412 110.36 106.322 110.36 106.202 110.36C105.962 110.33 105.812 110.42 105.752 110.66C105.692 110.87 105.662 111.62 105.662 112.88C105.662 114.08 105.692 114.8 105.722 115.04C105.782 115.28 105.902 115.4 106.112 115.4C106.172 115.4 106.262 115.4 106.352 115.4C106.652 115.4 106.772 115.31 106.832 115.1C106.892 114.86 106.922 114.14 106.922 112.88C106.922 111.68 106.922 110.96 106.862 110.72C106.832 110.48 106.712 110.36 106.472 110.36Z" fill="#E2DBDB"/>
<path d="M55.083 136.169C53.8003 136.169 52.7213 135.753 51.846 134.921C50.9707 134.089 50.533 133.006 50.533 131.671C50.533 130.336 50.9707 129.257 51.846 128.434C52.7213 127.602 53.8003 127.186 55.083 127.186C56.5737 127.186 57.7393 127.788 58.58 128.993L57.332 129.695C57.0893 129.357 56.7687 129.08 56.37 128.863C55.98 128.646 55.551 128.538 55.083 128.538C54.225 128.538 53.51 128.833 52.938 129.422C52.3747 130.011 52.093 130.761 52.093 131.671C52.093 132.581 52.3747 133.335 52.938 133.933C53.51 134.522 54.225 134.817 55.083 134.817C55.4903 134.817 55.876 134.739 56.24 134.583C56.6127 134.427 56.9117 134.245 57.137 134.037V132.685H54.55V131.346H58.658V134.596C57.7133 135.645 56.5217 136.169 55.083 136.169ZM63.0364 136.156C62.0657 136.156 61.2857 135.84 60.6964 135.207C60.107 134.566 59.8124 133.781 59.8124 132.854C59.8124 131.927 60.107 131.147 60.6964 130.514C61.2857 129.881 62.0657 129.565 63.0364 129.565C64.0157 129.565 64.8 129.881 65.3894 130.514C65.9787 131.147 66.2734 131.927 66.2734 132.854C66.2734 133.79 65.9787 134.574 65.3894 135.207C64.8 135.84 64.0157 136.156 63.0364 136.156ZM63.0364 134.947C63.5997 134.947 64.0417 134.748 64.3624 134.349C64.6917 133.942 64.8564 133.443 64.8564 132.854C64.8564 132.273 64.6917 131.784 64.3624 131.385C64.0417 130.978 63.5997 130.774 63.0364 130.774C62.4817 130.774 62.0397 130.978 61.7104 131.385C61.3897 131.784 61.2294 132.273 61.2294 132.854C61.2294 133.443 61.3897 133.942 61.7104 134.349C62.0397 134.748 62.4817 134.947 63.0364 134.947ZM70.7745 136H69.3055L66.7445 129.721H68.2005L70.0335 134.427L71.8665 129.721H73.3355L70.7745 136ZM77.0916 136.156C76.1383 136.156 75.3496 135.853 74.7256 135.246C74.1103 134.631 73.8026 133.833 73.8026 132.854C73.8026 131.935 74.1016 131.16 74.6996 130.527C75.3063 129.886 76.0689 129.565 76.9876 129.565C77.9149 129.565 78.6603 129.886 79.2236 130.527C79.7956 131.168 80.0816 131.987 80.0816 132.984V133.309H75.2326C75.2846 133.803 75.4883 134.215 75.8436 134.544C76.1989 134.873 76.6626 135.038 77.2346 135.038C77.5553 135.038 77.8759 134.977 78.1966 134.856C78.5259 134.735 78.7989 134.566 79.0156 134.349L79.6396 135.246C79.0069 135.853 78.1576 136.156 77.0916 136.156ZM78.7556 132.347C78.7383 131.914 78.5779 131.528 78.2746 131.19C77.9799 130.852 77.5509 130.683 76.9876 130.683C76.4503 130.683 76.0299 130.852 75.7266 131.19C75.4233 131.519 75.2543 131.905 75.2196 132.347H78.7556ZM82.7939 136H81.4289V129.721H82.7939V130.644C83.0366 130.332 83.3399 130.076 83.7039 129.877C84.0679 129.678 84.4449 129.578 84.8349 129.578V130.93C84.7136 130.904 84.5706 130.891 84.4059 130.891C84.1199 130.891 83.8123 130.978 83.4829 131.151C83.1623 131.316 82.9326 131.506 82.7939 131.723V136ZM94.9968 136H93.6318V131.905C93.6318 131.151 93.2894 130.774 92.6048 130.774C92.3188 130.774 92.0414 130.856 91.7728 131.021C91.5041 131.186 91.2961 131.381 91.1488 131.606V136H89.7838V131.905C89.7838 131.151 89.4371 130.774 88.7438 130.774C88.4664 130.774 88.1934 130.856 87.9248 131.021C87.6648 131.186 87.4568 131.385 87.3008 131.619V136H85.9358V129.721H87.3008V130.579C87.4568 130.345 87.7254 130.12 88.1068 129.903C88.4968 129.678 88.9084 129.565 89.3418 129.565C90.2518 129.565 90.8238 129.951 91.0578 130.722C91.2571 130.41 91.5518 130.141 91.9418 129.916C92.3318 129.682 92.7478 129.565 93.1898 129.565C94.3944 129.565 94.9968 130.198 94.9968 131.463V136ZM99.6639 136.156C98.7105 136.156 97.9219 135.853 97.2979 135.246C96.6825 134.631 96.3749 133.833 96.3749 132.854C96.3749 131.935 96.6739 131.16 97.2719 130.527C97.8785 129.886 98.6412 129.565 99.5599 129.565C100.487 129.565 101.233 129.886 101.796 130.527C102.368 131.168 102.654 131.987 102.654 132.984V133.309H97.8049C97.8569 133.803 98.0605 134.215 98.4159 134.544C98.7712 134.873 99.2349 135.038 99.8069 135.038C100.128 135.038 100.448 134.977 100.769 134.856C101.098 134.735 101.371 134.566 101.588 134.349L102.212 135.246C101.579 135.853 100.73 136.156 99.6639 136.156ZM101.328 132.347C101.311 131.914 101.15 131.528 100.847 131.19C100.552 130.852 100.123 130.683 99.5599 130.683C99.0225 130.683 98.6022 130.852 98.2989 131.19C97.9955 131.519 97.8265 131.905 97.7919 132.347H101.328ZM109.604 136H108.239V132.074C108.239 131.207 107.819 130.774 106.978 130.774C106.649 130.774 106.341 130.856 106.055 131.021C105.769 131.186 105.54 131.385 105.366 131.619V136H104.001V129.721H105.366V130.579C105.6 130.302 105.912 130.063 106.302 129.864C106.692 129.665 107.117 129.565 107.576 129.565C108.244 129.565 108.746 129.738 109.084 130.085C109.431 130.432 109.604 130.93 109.604 131.58V136ZM113.262 136.156C112.733 136.156 112.33 136.017 112.053 135.74C111.784 135.463 111.65 135.064 111.65 134.544V130.917H110.61V129.721H111.65V128.005H113.015V129.721H114.289V130.917H113.015V134.206C113.015 134.431 113.067 134.613 113.171 134.752C113.275 134.882 113.422 134.947 113.613 134.947C113.89 134.947 114.094 134.873 114.224 134.726L114.549 135.753C114.263 136.022 113.834 136.156 113.262 136.156Z" fill="#E2DBDB"/>
<path d="M3.09 132H1.92V126.85L0.83 127.98L0.15 127.27L2.07 125.33H3.09V132Z" fill="black"/>
<path d="M234.33 61H229.5V60.08C230.893 59.0267 231.84 58.2467 232.34 57.74C232.847 57.2267 233.1 56.7433 233.1 56.29C233.1 55.9633 232.98 55.7133 232.74 55.54C232.507 55.36 232.223 55.27 231.89 55.27C231.157 55.27 230.557 55.5367 230.09 56.07L229.41 55.3C229.697 54.9533 230.057 54.69 230.49 54.51C230.93 54.3233 231.39 54.23 231.87 54.23C232.55 54.23 233.123 54.4133 233.59 54.78C234.057 55.1467 234.29 55.65 234.29 56.29C234.29 56.8633 234.05 57.4333 233.57 58C233.09 58.5667 232.357 59.2233 231.37 59.97H234.33V61Z" fill="black"/>
</svg>
