<svg width="2" height="200" viewBox="0 0 2 200" fill="none" xmlns="http://www.w3.org/2000/svg">
<path d="M0 0.049505C0 0.60179 0.447715 1.0495 1 1.0495C1.55228 1.0495 2 0.60179 2 0.049505H0ZM2 9.95049C2 9.39821 1.55228 8.95049 1 8.95049C0.447715 8.95049 0 9.39821 0 9.95049H2ZM0 10.0495C0 10.6018 0.447715 11.0495 1 11.0495C1.55228 11.0495 2 10.6018 2 10.0495H0ZM2 19.9505C2 19.3982 1.55228 18.9505 1 18.9505C0.447715 18.9505 0 19.3982 0 19.9505H2ZM0 20.0495C0 20.6018 0.447715 21.0495 1 21.0495C1.55228 21.0495 2 20.6018 2 20.0495H0ZM2 29.9505C2 29.3982 1.55228 28.9505 1 28.9505C0.447715 28.9505 0 29.3982 0 29.9505H2ZM0 30.0495C0 30.6018 0.447715 31.0495 1 31.0495C1.55228 31.0495 2 30.6018 2 30.0495H0ZM2 39.9505C2 39.3982 1.55228 38.9505 1 38.9505C0.447715 38.9505 0 39.3982 0 39.9505H2ZM0 40.0495C0 40.6018 0.447715 41.0495 1 41.0495C1.55228 41.0495 2 40.6018 2 40.0495H0ZM2 49.9505C2 49.3982 1.55228 48.9505 1 48.9505C0.447715 48.9505 0 49.3982 0 49.9505H2ZM0 50.0495C0 50.6018 0.447715 51.0495 1 51.0495C1.55228 51.0495 2 50.6018 2 50.0495H0ZM2 59.9505C2 59.3982 1.55228 58.9505 1 58.9505C0.447715 58.9505 0 59.3982 0 59.9505H2ZM0 60.0495C0 60.6018 0.447715 61.0495 1 61.0495C1.55228 61.0495 2 60.6018 2 60.0495H0ZM2 69.9505C2 69.3982 1.55228 68.9505 1 68.9505C0.447715 68.9505 0 69.3982 0 69.9505H2ZM0 70.0495C0 70.6018 0.447715 71.0495 1 71.0495C1.55228 71.0495 2 70.6018 2 70.0495H0ZM2 79.9505C2 79.3982 1.55228 78.9505 1 78.9505C0.447715 78.9505 0 79.3982 0 79.9505H2ZM0 80.0495C0 80.6018 0.447715 81.0495 1 81.0495C1.55228 81.0495 2 80.6018 2 80.0495H0ZM2 89.9505C2 89.3982 1.55228 88.9505 1 88.9505C0.447715 88.9505 0 89.3982 0 89.9505H2ZM0 90.0495C0 90.6018 0.447715 91.0495 1 91.0495C1.55228 91.0495 2 90.6018 2 90.0495H0ZM2 99.9505C2 99.3982 1.55228 98.9505 1 98.9505C0.447715 98.9505 0 99.3982 0 99.9505H2ZM0 100.049C0 100.602 0.447715 101.049 1 101.049C1.55228 101.049 2 100.602 2 100.049H0ZM2 109.95C2 109.398 1.55228 108.95 1 108.95C0.447715 108.95 0 109.398 0 109.95H2ZM0 110.049C0 110.602 0.447715 111.049 1 111.049C1.55228 111.049 2 110.602 2 110.049H0ZM2 119.95C2 119.398 1.55228 118.95 1 118.95C0.447715 118.95 0 119.398 0 119.95H2ZM0 120.049C0 120.602 0.447715 121.049 1 121.049C1.55228 121.049 2 120.602 2 120.049H0ZM2 129.95C2 129.398 1.55228 128.95 1 128.95C0.447715 128.95 0 129.398 0 129.95H2ZM0 130.05C0 130.602 0.447715 131.05 1 131.05C1.55228 131.05 2 130.602 2 130.05H0ZM2 139.95C2 139.398 1.55228 138.95 1 138.95C0.447715 138.95 0 139.398 0 139.95H2ZM0 140.05C0 140.602 0.447715 141.05 1 141.05C1.55228 141.05 2 140.602 2 140.05H0ZM2 149.95C2 149.398 1.55228 148.95 1 148.95C0.447715 148.95 0 149.398 0 149.95H2ZM0 150.049C0 150.602 0.447715 151.049 1 151.049C1.55228 151.049 2 150.602 2 150.049H0ZM2 159.95C2 159.398 1.55228 158.95 1 158.95C0.447715 158.95 0 159.398 0 159.95H2ZM0 160.049C0 160.602 0.447715 161.049 1 161.049C1.55228 161.049 2 160.602 2 160.049H0ZM2 169.95C2 169.398 1.55228 168.95 1 168.95C0.447715 168.95 0 169.398 0 169.95H2ZM0 170.05C0 170.602 0.447715 171.05 1 171.05C1.55228 171.05 2 170.602 2 170.05H0ZM2 179.95C2 179.398 1.55228 178.95 1 178.95C0.447715 178.95 0 179.398 0 179.95H2ZM0 180.05C0 180.602 0.447715 181.05 1 181.05C1.55228 181.05 2 180.602 2 180.05H0ZM2 189.95C2 189.398 1.55228 188.95 1 188.95C0.447715 188.95 0 189.398 0 189.95H2ZM0 190.05C0 190.602 0.447715 191.05 1 191.05C1.55228 191.05 2 190.602 2 190.05H0ZM2 199.95C2 199.398 1.55228 198.95 1 198.95C0.447715 198.95 0 199.398 0 199.95H2ZM0 0V0.049505H2V0H0ZM0 9.95049V10.0495H2V9.95049H0ZM0 19.9505V20.0495H2V19.9505H0ZM0 29.9505V30.0495H2V29.9505H0ZM0 39.9505V40.0495H2V39.9505H0ZM0 49.9505V50.0495H2V49.9505H0ZM0 59.9505V60.0495H2V59.9505H0ZM0 69.9505V70.0495H2V69.9505H0ZM0 79.9505V80.0495H2V79.9505H0ZM0 89.9505V90.0495H2V89.9505H0ZM0 99.9505V100.049H2V99.9505H0ZM0 109.95V110.049H2V109.95H0ZM0 119.95V120.049H2V119.95H0ZM0 129.95V130.05H2V129.95H0ZM0 139.95V140.05H2V139.95H0ZM0 149.95V150.049H2V149.95H0ZM0 159.95V160.049H2V159.95H0ZM0 169.95V170.05H2V169.95H0ZM0 179.95V180.05H2V179.95H0ZM0 189.95V190.05H2V189.95H0ZM0 199.95V200H2V199.95H0Z" fill="#A9A8A8"/>
</svg>
