<svg width="30" height="30" viewBox="0 0 30 30" fill="none" xmlns="http://www.w3.org/2000/svg">
                                <path fill-rule="evenodd" clip-rule="evenodd"
                                    d="M13.6793 7.00229C13.9229 7.00193 14.1947 7.00229 14.5001 7.00229C16.9428 7.00229 17.2323 7.01108 18.1969 7.0549C19.0889 7.09572 19.5731 7.24476 19.8956 7.37C20.3225 7.53584 20.6269 7.73406 20.9469 8.05431C21.2671 8.37455 21.4654 8.67957 21.6316 9.10662C21.7568 9.42872 21.906 9.91295 21.9466 10.8051C21.9904 11.7696 22 12.0594 22 14.5013C22 16.9431 21.9904 17.2329 21.9466 18.1974C21.9058 19.0896 21.7568 19.5738 21.6316 19.8959C21.4657 20.3229 21.2671 20.6269 20.9469 20.9471C20.6267 21.2673 20.3227 21.4655 19.8956 21.6314C19.5735 21.7572 19.0889 21.9059 18.1969 21.9467C17.2325 21.9905 16.9428 22 14.5001 22C12.0572 22 11.7676 21.9905 10.8032 21.9467C9.91121 21.9055 9.42705 21.7564 9.10441 21.6311C8.67743 21.4653 8.37245 21.2671 8.05224 20.9468C7.73204 20.6266 7.53384 20.3224 7.36766 19.8952C7.24244 19.573 7.0932 19.0888 7.0526 18.1967C7.00872 17.2321 7 16.9424 7 14.499C7 12.0555 7.00872 11.7673 7.0526 10.8028C7.09335 9.91066 7.24244 9.42643 7.36766 9.1039C7.53348 8.67693 7.73204 8.37191 8.05224 8.05166C8.37245 7.73142 8.67743 7.53319 9.10441 7.36692C9.42691 7.24111 9.91121 7.09243 10.8032 7.05147C11.6472 7.01337 11.9742 7.00193 13.6793 7V7.00229ZM19.3836 8.52152C18.7775 8.52152 18.2858 9.01283 18.2858 9.61915C18.2858 10.2253 18.7775 10.7171 19.3836 10.7171C19.9897 10.7171 20.4815 10.2253 20.4815 9.61915C20.4815 9.01297 19.9897 8.52152 19.3836 8.52152ZM14.5001 9.80444C11.9054 9.80444 9.80179 11.9084 9.80179 14.5033C9.80179 17.0983 11.9054 19.2013 14.5001 19.2013C17.0947 19.2013 19.1976 17.0983 19.1976 14.5033C19.1976 11.9084 17.0947 9.80444 14.5001 9.80444Z"
                                    fill="#A9A8A8" />
                                <path fill-rule="evenodd" clip-rule="evenodd"
                                    d="M14.5 12C15.8806 12 17 13.1192 17 14.5C17 15.8806 15.8806 17 14.5 17C13.1192 17 12 15.8806 12 14.5C12 13.1192 13.1192 12 14.5 12Z"
                                    fill="#A9A8A8" />
                            </svg>