                            <svg width="30" height="30" viewBox="0 0 30 30" fill="none" xmlns="http://www.w3.org/2000/svg">
                                <path fill-rule="evenodd" clip-rule="evenodd"
                                    d="M10.6322 12.8789H7.20278V22.9998H10.6322V12.8789ZM10.8581 9.74816C10.8358 8.75582 10.1134 8 8.94015 8C7.76698 8 7 8.75582 7 9.74816C7 10.7199 7.74434 11.4975 8.89563 11.4975H8.91757C10.1134 11.4975 10.8581 10.7199 10.8581 9.74816ZM23 17.1968C23 14.0881 21.3082 12.6413 19.0514 12.6413C17.2306 12.6413 16.4154 13.6236 15.9603 14.3127V12.8792H12.5305C12.5757 13.8289 12.5305 23 12.5305 23H15.9603V17.3477C15.9603 17.0452 15.9826 16.7435 16.0732 16.527C16.3211 15.9226 16.8854 15.297 17.8329 15.297C19.0743 15.297 19.5706 16.225 19.5706 17.5851V22.9998H22.9999L23 17.1968Z"
                                    fill="#A9A8A8" />
                            </svg>