<svg width="30" height="30" viewBox="0 0 30 30" fill="none" xmlns="http://www.w3.org/2000/svg">
                                <path fill-rule="evenodd" clip-rule="evenodd"
                                    d="M15.7847 19.9624C15.7847 19.9624 16.0734 19.9307 16.2213 19.7741C16.3567 19.6306 16.352 19.3598 16.352 19.3598C16.352 19.3598 16.334 18.0951 16.9296 17.9084C17.5165 17.7247 18.2701 19.1314 19.0699 19.6723C19.674 20.0812 20.1326 19.9917 20.1326 19.9917L22.2697 19.9624C22.2697 19.9624 23.3872 19.8945 22.8574 19.028C22.8136 18.957 22.5483 18.3868 21.2689 17.2155C19.9283 15.9895 20.1083 16.1877 21.7219 14.0667C22.7049 12.775 23.0977 11.9864 22.9748 11.6493C22.8583 11.3267 22.1351 11.4124 22.1351 11.4124L19.7296 11.4271C19.7296 11.4271 19.5511 11.4031 19.4189 11.4811C19.2897 11.5575 19.206 11.7357 19.206 11.7357C19.206 11.7357 18.8257 12.7349 18.3178 13.5852C17.2465 15.3784 16.8184 15.4732 16.6431 15.3622C16.2354 15.1022 16.3371 14.319 16.3371 13.7626C16.3371 12.0243 16.6048 11.2998 15.8167 11.1122C15.5554 11.0498 15.3629 11.0088 14.6937 11.0019C13.8353 10.9935 13.1091 11.005 12.6974 11.2033C12.4236 11.3352 12.2122 11.63 12.3414 11.647C12.5002 11.6678 12.8602 11.7427 13.0512 11.9988C13.2977 12.3298 13.2891 13.0721 13.2891 13.0721C13.2891 13.0721 13.4307 15.1183 12.9581 15.3722C12.6341 15.5466 12.1896 15.1909 11.2341 13.5636C10.745 12.7303 10.3756 11.809 10.3756 11.809C10.3756 11.809 10.3044 11.6369 10.1768 11.5443C10.0227 11.4325 9.80744 11.3977 9.80744 11.3977L7.52162 11.4124C7.52162 11.4124 7.17806 11.4217 7.05206 11.569C6.94019 11.6994 7.04344 11.9702 7.04344 11.9702C7.04344 11.9702 8.83319 16.099 10.86 18.18C12.7186 20.0874 14.8284 19.9624 14.8284 19.9624H15.7847Z"
                                    fill="#A9A8A8" />
                            </svg>