<svg width="13" height="12" fill="none" xmlns="http://www.w3.org/2000/svg"><path fill-rule="evenodd" clip-rule="evenodd" d="M6.27 0c-1.6 0-1.801.007-2.43.036-.627.028-1.055.128-1.43.273-.387.15-.716.352-1.043.68a2.892 2.892 0 00-.68 1.043c-.146.375-.246.803-.274 1.43-.028.629-.035.83-.035 2.43s.007 1.8.035 2.429c.029.627.128 1.055.274 1.43.15.387.352.716.68 1.043.327.328.655.53 1.043.68.375.146.803.245 1.43.274.628.029.83.036 2.43.036s1.8-.008 2.428-.036c.627-.029 1.056-.128 1.43-.274.388-.15.716-.352 1.044-.68a2.89 2.89 0 00.68-1.043c.144-.375.244-.803.273-1.43.029-.629.036-.83.036-2.43s-.007-1.8-.036-2.429c-.03-.627-.129-1.055-.273-1.43a2.89 2.89 0 00-.68-1.043 2.879 2.879 0 00-1.044-.68C9.753.164 9.324.064 8.698.036 8.067.007 7.867 0 6.267 0h.002zm3.145 2.04a.707.707 0 100 1.414.707.707 0 000-1.414zm-3.145.826a3.026 3.026 0 100 6.052 3.026 3.026 0 000-6.052zm0 1.062a1.964 1.964 0 110 3.928 1.964 1.964 0 010-3.928z" fill="#fff"/></svg>