<svg width="14" height="13" fill="none" xmlns="http://www.w3.org/2000/svg"><path fill-rule="evenodd" clip-rule="evenodd" d="M3.299 1.448C3.281.626 2.693 0 1.739 0 .785 0 .161.626.161 1.448c0 .804.605 1.448 1.542 1.448h.018c.972 0 1.578-.644 1.578-1.448zM3.115 4.04H.325v8.381h2.79v-8.38zm6.848-.197c1.836 0 3.212 1.199 3.212 3.773v4.805h-2.79V7.937c0-1.126-.403-1.894-1.413-1.894-.77 0-1.23.518-1.431 1.018-.074.18-.092.43-.092.68v4.68h-2.79s.037-7.594 0-8.38h2.79v1.187c.37-.571 1.033-1.385 2.514-1.385z" fill="#fff"/></svg>