<svg width="192" height="41" fill="none" xmlns="http://www.w3.org/2000/svg"><path d="M41.696 28.135h-12.86V41h12.86V28.135zM12.859 21.06H0v12.864h12.859V21.06zM27.432 0H14.573v12.865h12.859V0zM56.15 7.076H43.29V19.94h12.86V7.076zM27.432 27.278l-12.859 6.646V21.06l12.859-6.623v12.84zm15.859.857V41l12.859-6.623V21.512l-12.86 6.624zM12.859 0L0 6.623v12.864l12.859-6.622V0zm28.837 19.94l-12.86 6.623v-12.84l12.86-6.647V19.94zm86.487 8.79v5.766h1.047l1.572-3.907v3.907h.929v-5.765h-1.024l-1.572 3.93v-3.93h-.952zm2.881-1.071h-.667v.119c0 .19-.071.238-.238.238h-.429c-.166 0-.238-.071-.238-.238v-.12h-.667v.24c0 .428.239.642.715.642h.809c.453 0 .715-.19.715-.667v-.214zm-8.739 1.072v5.765h1.047l1.572-3.907v3.907h.929v-5.765h-1.024l-1.572 3.93v-3.93h-.952zm-3.286 3.168v2.597h1.023v-5.765h-1.023v2.335h-1.524V28.73h-1.024v5.765h1.024V31.9h1.524zm-5.692 1.406l.286 1.215h1.143l-1.452-5.765h-1.263l-1.476 5.765h1.095l.262-1.215h1.405zm-1.286-.715l.596-2.62.595 2.62h-1.191zm-4.476-.714c.166 0 .262.095.262.31v1.19c0 .191-.096.286-.262.286h-1.286V31.9h1.286v-.023zm.262-2.002v.906c0 .214-.072.31-.262.31h-1.286v-1.501h1.286c.166.023.262.095.262.285zm.047 1.62c.691-.023.953-.38.953-1.024v-.738c0-.596-.262-1.001-.977-1.001h-2.571v5.765h2.571c.691 0 .977-.405.977-1v-.977c0-.62-.262-1-.953-1.025zm-8.43 2.002c0 .595.263 1 .977 1h1.619c.691 0 .977-.405.977-1V29.73c0-.595-.262-1-.977-1h-1.619c-.69 0-.976.405-.976 1v3.765zm2.549-.191c0 .19-.072.286-.239.286h-1.047c-.167 0-.238-.095-.238-.286v-3.36c0-.19.071-.285.238-.285h1.047c.167 0 .239.095.239.286v3.359zm-7.24-3.74h.953v4.121h-1.69l.738-4.121zm-2.476 4.121v2.192h1v-1.382h3.215v1.382h1v-2.192h-.786v-4.955h-2.81l-.88 4.955h-.739zm-1.786-4.074c.072 0 .167 0 .238.048v-.905h-3.12v5.765h3.216v-.905a.847.847 0 01-.239.047H88.63v-1.739h1.381a.8.8 0 01.238.024v-.881c-.071.023-.166.023-.238.023H88.63v-1.453h1.881v-.024zm-8.048-.881l-1.048 5.765h1.071l.882-4.884h1v4.884h1v-5.765h-2.905zm-4.572 4.86c-.167 0-.239-.095-.239-.286v-3.36c0-.19.072-.285.239-.285h1.547a.9.9 0 01.381.072V28.73h-2.19c-.69 0-.977.405-.977 1v3.765c0 .595.262 1 .977 1h2.238v-1a.907.907 0 01-.381.071h-1.595v.024zm-5.049 0c-.166 0-.238-.095-.238-.286v-3.36c0-.19.072-.285.238-.285h1.548a.9.9 0 01.381.072V28.73h-2.238c-.69 0-.977.405-.977 1v3.765c0 .595.262 1 .977 1h2.238v-1a.907.907 0 01-.38.071h-1.549v.024zm-7.096-4.86v5.765h1.048l1.572-3.907v3.907h.928v-5.765H68.27L66.7 32.66v-3.93h-.953zm124.706-8.338l1.405-2.764h-1.143l-.857 2.097-.881-2.097h-1.215l1.429 2.811-1.548 2.955h1.143l1-2.216 1.001 2.216H192l-1.548-3.002zm-5.548 3.002h1v-5.766h-1v5.766zm-4.215-5.766v5.766h2.572c.69 0 .976-.405.976-1.001v-1.81c0-.596-.262-1.001-.976-1.001h-1.572v-1.954h-1zm1 2.811h1.286c.167 0 .238.096.238.286v1.525c0 .19-.071.286-.262.286h-1.262v-2.096zm-4.548.31c.167 0 .262.096.262.31v1.191c0 .19-.095.286-.262.286h-1.286v-1.763h1.286v-.024zm.262-1.977v.905c0 .215-.071.31-.262.31h-1.286v-1.501h1.286c.167 0 .262.095.262.286zm.048 1.596c.69-.024.952-.381.952-1.024v-.739c0-.596-.262-1-.976-1h-2.572v5.765h2.572c.69 0 .976-.405.976-1v-.978c0-.619-.262-.976-.952-1.024zm-8.43 2.025c0 .596.262 1 .976 1h1.62c.69 0 .976-.404.976-1V18.63c0-.596-.262-1-.976-1h-1.62c-.69 0-.976.404-.976 1v3.764zm2.548-.214c0 .19-.071.285-.238.285h-1.048c-.167 0-.238-.095-.238-.285v-3.36c0-.19.071-.285.238-.285h1.048c.167 0 .238.095.238.285v3.36zm-6.096-1.43c.167 0 .262.096.262.31v1.191c0 .19-.095.286-.262.286h-1.286v-1.763h1.286v-.024zm.262-1.977v.905c0 .215-.072.31-.262.31h-1.286v-1.501h1.286c.167 0 .262.095.262.286zm.048 1.596c.69-.024.952-.381.952-1.024v-.739c0-.596-.262-1-.976-1h-2.572v5.765h2.572c.69 0 .976-.405.976-1v-.978c0-.619-.262-.976-.952-1.024zm-5.739 1.81l.285 1.216h1.143l-1.452-5.766h-1.262l-1.477 5.766h1.096l.262-1.215h1.405zm-1.262-.714l.595-2.62.595 2.62h-1.19zm-5.501-2.93h1.286c.167 0 .238.095.238.285v1.096c0 .191-.071.286-.238.286h-1.286v-1.667zm0 2.596h1.595c.691 0 .953-.405.953-1V18.63c0-.596-.262-1-.976-1h-2.572v5.765h1.024V21.13h-.024zm-4.31-2.668v4.932h1.024v-5.766h-3.548v5.766h1.024v-4.932h1.5zm-5.334 2.168h-1.619v.81h1.619v-.81zm-7.382 1.763c0 .596.262 1 .976 1h1.62c.69 0 .976-.404.976-1V18.63c0-.596-.262-1-.976-1h-1.62c-.69 0-.976.404-.976 1v3.764zm2.524-.19c0 .19-.071.285-.238.285h-1.048c-.166 0-.238-.095-.238-.286V18.82c0-.19.072-.285.238-.285h1.048c.167 0 .238.095.238.285v3.383zm-5.834-1.406v2.597h1.024v-5.766h-1.024v2.335h-1.524v-2.335h-1.024v5.765h1.024v-2.596h1.524zm-8.263-3.169v5.765h2.572c.69 0 .976-.404.976-1v-1.81c0-.596-.262-1.001-.976-1.001h-1.572v-1.954h-1zm1 2.811h1.286c.167 0 .238.096.238.286v1.525c0 .19-.071.286-.262.286h-1.286V20.44h.024zm-6.215-2.81l-1.048 5.765h1.072l.881-4.884h1v4.884h1v-5.766h-2.905zm-3.048.857c.072 0 .167 0 .238.048v-.906h-3.119v5.765h3.215v-.905a.852.852 0 01-.239.048h-1.976v-1.74h1.381a.8.8 0 01.238.024v-.88c-.071.023-.166.023-.238.023h-1.381V18.51h1.881v-.024zm-6.024.071h.976c.071 0 .167 0 .238.048v-.977h-3.453v.953c.095-.024.167-.047.238-.047h.977v4.86h1v-4.837h.024zm-7.739-.929v5.765h1.047l1.596-3.907v3.908h.928v-5.766h-1.024l-1.571 3.931v-3.93h-.976zm-3.287 3.169v2.597h1.024v-5.766h-1.024v2.335h-1.524v-2.335h-1.023v5.765h1.023v-2.596h1.524zm-6.096-.048c.167 0 .262.095.262.31v1.19c0 .192-.095.287-.262.287h-1.285v-1.763h1.285v-.024zm.262-1.977v.905c0 .214-.071.31-.262.31h-1.285v-1.501h1.285c.167 0 .262.095.262.286zm.048 1.62c.69-.024.953-.381.953-1.025v-.738c0-.596-.262-1-.977-1h-2.572v5.765h2.572c.69 0 .977-.405.977-1.001v-.977c0-.643-.262-1-.953-1.024zm-5.739 1.787l.286 1.215h1.143l-1.453-5.766h-1.262l-1.476 5.765h1.095l.262-1.214h1.405zm-1.286-.715l.596-2.62.595 2.62h-1.19zm-5.5-2.907h1.285c.167 0 .239.096.239.286v1.096c0 .19-.072.286-.238.286h-1.286v-1.668zm0 2.573h1.595c.69 0 .953-.405.953-1V18.63c0-.596-.262-1-.977-1h-2.572v5.765h1.025V21.13h-.024zm-4.81 1.358c-.167 0-.239-.095-.239-.286V18.82c0-.19.072-.285.239-.285h1.547a.9.9 0 01.381.071v-.977h-2.214c-.69 0-.977.405-.977 1v3.765c0 .596.262 1 .977 1H78.2v-1a.907.907 0 01-.38.071h-1.572v.024zm-10.502-4.86v5.765h1.048l1.572-3.907v3.908h.928v-5.766H68.27l-1.595 3.931v-3.93h-.929zM173.569 9.91l1.405-2.763h-1.143l-.857 2.096-.881-2.096h-1.215l1.429 2.811-1.524 2.978h1.143l1-2.216 1 2.216h1.215l-1.572-3.026zm-5.548 3.002h1V7.123h-1v5.79zm-4.215-5.789v5.765h2.572c.69 0 .976-.405.976-1v-1.81c0-.596-.262-1.001-.976-1.001h-1.572V7.123h-1zm1 2.835h1.286c.167 0 .238.095.238.286v1.525c0 .19-.071.286-.262.286h-1.286V9.958h.024zm-4.286.334v2.596h1.024V7.123h-1.024v2.335h-1.524V7.123h-1.024v5.765h1.024v-2.596h1.524zm-7.239-2.335h.952v4.121h-1.69l.738-4.121zm-2.477 4.121v2.192h1.001v-1.382h3.214v1.382h1v-2.192h-.785V7.123h-2.81l-.881 4.955h-.739zm-5.334-.19c0 .595.262 1 .977 1h1.619c.691 0 .976-.405.976-1V8.124c0-.596-.262-1-.976-1h-1.619c-.691 0-.977.404-.977 1v3.764zm2.548-.19c0 .19-.071.285-.238.285h-1.048c-.166 0-.238-.095-.238-.286V8.338c0-.19.072-.286.238-.286h1.048c.167 0 .238.096.238.286v3.36zm-7.096-3.646h1.286c.167 0 .238.096.238.286v1.096c0 .19-.071.286-.238.286h-1.286V8.052zm0 2.573h1.596c.69 0 .952-.405.952-1V8.124c0-.596-.262-1-.976-1h-2.572v5.764h1.024v-2.263h-.024zm-4.167 1.072l.286 1.215h1.143l-1.453-5.765h-1.262l-1.476 5.765h1.095l.262-1.215h1.405zm-1.286-.714l.595-2.621.596 2.62h-1.191zm-4.215-.691v2.596h1.024V7.123h-1.024v2.335h-1.524V7.123h-1.024v5.765h1.024v-2.596h1.524zm-7.929-3.169l1.286 4.122h.119l-.167.452c-.048.19-.19.286-.381.286h-.476c-.072 0-.167 0-.238-.048v.953h.809c.715 0 1.096-.428 1.262-1l1.477-4.789h-1.048l-.762 2.907-.786-2.883h-1.095zm-4.215.834h.952v4.121h-1.714l.762-4.121zm-2.5 4.121v2.192h1v-1.382h3.214v1.382h1.001v-2.192h-.786V7.123h-2.81l-.881 4.955h-.738zm-7.763-4.955l.905 2.287c.071.19.262.381.452.453-.214.047-.381.238-.5.5l-1 2.525h1.143l.81-2.263c.071-.262.19-.357.381-.357h.428v2.596h1v-2.572h.429c.214 0 .286.095.381.357l.81 2.263h1.143l-1.001-2.525c-.095-.262-.262-.453-.476-.5a.843.843 0 00.453-.453l.904-2.287h-1.047l-.738 1.977c-.072.239-.215.358-.381.358h-.429V7.147h-1v2.335h-.429c-.19 0-.309-.12-.405-.358l-.738-1.977h-1.095v-.024zm-2 .882c.071 0 .166 0 .238.047v-.905h-3.12v5.765h3.215v-.905a.853.853 0 01-.238.048h-1.977v-1.74h1.381a.81.81 0 01.239.024v-.881c-.072.024-.167.024-.239.024h-1.381V8.028h1.882v-.023zm-5.144-.882h-1.453l-.785 3.383-.786-3.383h-1.524v5.765h.952V8.314l.81 3.264h1.048l.809-3.264v4.598h.953V7.123h-.024zm-12.525.93h1.286c.166 0 .238.095.238.285v1.096c0 .19-.072.286-.238.286h-1.286V8.052zm0 2.572h1.595c.69 0 .953-.405.953-1V8.124c0-.596-.262-1-.977-1h-2.571v5.764H89.2v-2.263h-.023zm-4.191-2.573h.976c.071 0 .167 0 .238.048v-.977h-3.453V8.1c.096-.024.167-.048.239-.048h.976v4.86h1v-4.86h.024zm-5.191 2.24v2.596h1.023V7.123h-1.023v2.335h-1.524V7.123h-1.024v5.765h1.024v-2.596h1.524zm-4.834-2.287c.071 0 .166 0 .238.047v-.905h-3.12v5.765h3.215v-.905a.846.846 0 01-.238.048h-1.953v-1.74h1.381a.81.81 0 01.239.024v-.881c-.072.024-.167.024-.239.024h-1.38V8.028h1.857v-.023zm-9.216-.882v5.765H69.2v1.382h1v-2.263h-.905V7.123h-1v4.884h-1.548V7.123h-1z" fill="#fff"/></svg>