<svg id="Capa_1" enable-background="new 0 0 512 512" height="512" viewBox="0 0 512 512" width="512" xmlns="http://www.w3.org/2000/svg"><g><g><path d="m422.268 504.5h-332.536c-8.991 0-16.279-7.289-16.279-16.279v-464.442c0-8.991 7.289-16.279 16.279-16.279h332.537c8.991 0 16.279 7.289 16.279 16.279v464.441c0 8.991-7.289 16.28-16.28 16.28z" fill="#d8ab8c"/></g><g><path d="m422.268 7.5h-30c8.991 0 16.279 7.289 16.279 16.279v464.441c0 8.991-7.289 16.279-16.279 16.279h30c8.991 0 16.279-7.289 16.279-16.279v-464.441c.001-8.99-7.288-16.279-16.279-16.279z" fill="#cf9875"/></g><g><path d="m110.452 451.225v-371.553c0-8.989 7.287-16.275 16.275-16.275h258.545c8.989 0 16.275 7.287 16.275 16.275v371.553c0 8.989-7.287 16.275-16.275 16.275h-258.545c-8.988 0-16.275-7.287-16.275-16.275z" fill="#f7f7f7"/></g><g><path d="m385.272 63.396h-30c8.989 0 16.275 7.287 16.275 16.275v371.553c0 8.989-7.287 16.275-16.275 16.275h30c8.989 0 16.275-7.287 16.275-16.275v-371.552c.001-8.988-7.286-16.276-16.275-16.276z" fill="#e8e8e8"/></g><g><path d="m181.775 38.255h148.451v50.267h-148.451z" fill="#b4aaaa"/></g><g><path d="m300.225 38.255h30v50.267h-30z" fill="#9b9696"/></g><g><path d="m158.407 156.281h203.436v252.263h-203.436z" fill="#92e0c4"/></g><g><path d="m158.407 156.281h203.436v36.037h-203.436z" fill="#f8e883"/></g><g><path d="m158.407 192.319h203.436v36.038h-203.436z" fill="#92e0c4"/></g><g><path d="m158.407 228.356h203.436v36.038h-203.436z" fill="#92e0c4"/></g><g><path d="m158.407 264.394h203.436v36.038h-203.436z" fill="#92e0c4"/></g><g><path d="m158.407 300.432h203.436v36.038h-203.436z" fill="#92e0c4"/></g><g><path d="m158.407 336.469h203.436v36.038h-203.436z" fill="#92e0c4"/></g><g><path d="m158.407 372.507h203.436v36.038h-203.436z" fill="#92e0c4"/></g><g><path d="m226.356 156.281h67.581v36.037h-67.581z" fill="#f8e883"/></g><g><path d="m226.356 192.319h67.581v36.038h-67.581z" fill="#92e0c4"/></g><g><path d="m226.356 228.356h67.581v36.038h-67.581z" fill="#92e0c4"/></g><g><path d="m226.356 264.394h67.581v36.038h-67.581z" fill="#92e0c4"/></g><g><path d="m226.356 300.432h67.581v36.038h-67.581z" fill="#92e0c4"/></g><g><path d="m226.356 336.469h67.581v36.038h-67.581z" fill="#92e0c4"/></g><g><path d="m226.356 372.507h67.581v36.038h-67.581z" fill="#92e0c4"/></g><g><path d="m158.407 156.281h67.949v36.037h-67.949z" fill="#80b6fc"/></g><g><path d="m158.407 192.319h67.949v36.038h-67.949z" fill="#f7f7f7"/></g><g><path d="m158.407 228.356h67.949v36.038h-67.949z" fill="#f7f7f7"/></g><g><path d="m158.407 264.394h67.949v36.038h-67.949z" fill="#f7f7f7"/></g><g><path d="m158.407 300.432h67.949v36.038h-67.949z" fill="#f7f7f7"/></g><g><path d="m158.407 336.469h67.949v36.038h-67.949z" fill="#f7f7f7"/></g><g><path d="m158.407 372.507h67.949v36.038h-67.949z" fill="#f7f7f7"/></g><g><path d="m422.269 0h-332.538c-13.112 0-23.779 10.667-23.779 23.779v202.221c0 4.142 3.357 7.5 7.5 7.5s7.5-3.358 7.5-7.5v-202.221c0-4.841 3.938-8.779 8.779-8.779h332.537c4.841 0 8.779 3.938 8.779 8.779v464.441c0 4.841-3.939 8.779-8.779 8.779h-332.537c-4.841 0-8.779-3.939-8.779-8.779v-232.22c0-4.142-3.357-7.5-7.5-7.5s-7.5 3.358-7.5 7.5v232.221c0 13.112 10.667 23.779 23.779 23.779h332.537c13.112 0 23.779-10.668 23.779-23.779v-464.442c.001-13.112-10.666-23.779-23.778-23.779z"/><path d="m330.226 30.755h-148.452c-4.143 0-7.5 3.358-7.5 7.5v17.642h-47.547c-13.109 0-23.775 10.665-23.775 23.775v371.553c0 13.11 10.666 23.775 23.775 23.775h258.545c13.109 0 23.775-10.665 23.775-23.775v-291.999c0-4.142-3.358-7.5-7.5-7.5-4.143 0-7.5 3.358-7.5 7.5v291.999c0 4.839-3.937 8.775-8.775 8.775h-258.545c-4.839 0-8.775-3.936-8.775-8.775v-371.553c0-4.839 3.937-8.775 8.775-8.775h47.547v17.626c0 4.142 3.357 7.5 7.5 7.5h148.451c4.143 0 7.5-3.358 7.5-7.5v-17.627h47.547c4.839 0 8.775 3.937 8.775 8.775v49.554c0 4.142 3.357 7.5 7.5 7.5 4.142 0 7.5-3.358 7.5-7.5v-49.553c0-13.11-10.666-23.775-23.775-23.775h-47.547v-17.642c.001-4.142-3.357-7.5-7.499-7.5zm-7.5 50.267h-133.452v-35.267h133.451v35.267z"/><path d="m158.407 148.781c-4.143 0-7.5 3.358-7.5 7.5v252.264c0 4.142 3.357 7.5 7.5 7.5h203.436c4.143 0 7.5-3.358 7.5-7.5v-252.264c0-4.142-3.357-7.5-7.5-7.5zm75.449 216.226v-21.038h52.581v21.038zm52.581 15v21.038h-52.581v-21.038zm0-180.188v21.038h-52.581v-21.038zm-52.581-15v-21.038h52.581v21.038zm0 87.075h52.581v21.038h-52.581zm-15 21.038h-52.949v-21.038h52.949zm82.581-21.038h52.905v21.038h-52.905zm0-15v-21.038h52.905v21.038zm-15 0h-52.581v-21.038h52.581zm-67.581 0h-52.949v-21.038h52.949zm-52.949 51.038h52.949v21.038h-52.949zm67.949 0h52.581v21.038h-52.581zm67.581 0h52.905v21.038h-52.905zm52.906-87.076h-52.905v-21.038h52.905zm-135.487 0h-52.949v-21.038h52.949zm-52.949 123.113h52.949v21.038h-52.949zm135.53 0h52.905v21.038h-52.905zm52.906-159.15h-52.905v-21.038h52.905zm-135.487-21.038v21.038h-52.949v-21.038zm-52.949 216.226h52.949v21.038h-52.949zm135.53 21.037v-21.038h52.905v21.038z"/></g></g></svg>