<svg xmlns="http://www.w3.org/2000/svg" viewBox="0 0 1274 474"><defs><style>.a{fill:#ed1c24;}.b{fill:#39b54a;}.c{fill:#ffcf01;}.d{fill:#0077c0;}.e{fill:#1d1d1b;}</style></defs><title>ICLRC_logo_vector_</title><rect x="335.36" y="304.79" width="111.84" height="111.84"/><rect x="84.55" y="243.23" width="111.84" height="111.84"/><rect x="211.34" y="60.08" width="111.84" height="111.84"/><rect x="461.16" y="121.64" width="111.84" height="111.84"/><polygon class="a" points="323.19 297.38 211.35 355.06 211.35 243.22 323.19 185.54 323.19 297.38"/><polygon class="b" points="461.16 304.78 461.16 416.62 573 358.94 573 247.1 461.16 304.78"/><polygon class="c" points="196.38 60.08 84.55 117.77 84.55 229.6 196.38 171.92 196.38 60.08"/><polygon class="d" points="447.2 233.48 335.37 291.16 335.37 179.32 447.2 121.64 447.2 233.48"/><path class="e" d="M843.45,322.14h8.17c1,0,1.52.58,1.52,1.78v5.35c0,1.21-.52,1.78-1.52,1.78h-8.17Zm11.21,13.94h.26c1.63,0,4.66-1,4.66-6.23v-7.18c0-3.77-1.72-6.39-6.17-6.39H837V353h6.44V336.71h5.19L854.3,353h7Zm-32.27-14.3A4.44,4.44,0,0,1,824,322v-5.76H804.21V353h20.48v-5.76a4,4,0,0,1-1.52.26H810.65V336.4h8.75a8.23,8.23,0,0,1,1.52.15v-5.66a7.49,7.49,0,0,1-1.52.16h-8.75v-9.27Zm-38.3.36h6.18a4.43,4.43,0,0,1,1.57.27v-6.13H770v6.13a4.47,4.47,0,0,1,1.57-.27h6.18V353h6.39ZM750.93,353h6.6V316.28h-6V341l-10-24.73H735V353h6V328.22Zm-30.65-31.17a4.48,4.48,0,0,1,1.57.26v-5.76H702.1V353h20.48v-5.76a4,4,0,0,1-1.52.26H708.54V336.4h8.75a8.23,8.23,0,0,1,1.52.15v-5.66a7.49,7.49,0,0,1-1.52.16h-8.75v-9.27Zm-42.39,25.31c-1,0-1.52-.58-1.52-1.79V323.92c0-1.2.53-1.78,1.58-1.78h9.9a5.05,5.05,0,0,1,2.41.48v-6.34H676.11c-4.45,0-6.18,2.62-6.18,6.39v23.89c0,3.77,1.73,6.39,6.18,6.39h14.15v-6.34a5.05,5.05,0,0,1-2.41.48Z"/><path class="e" d="M1057.89,269.71v16.56h6.44V249.6h-6.44v14.77h-9.69V249.6h-6.45v36.67h6.45V269.71Zm-40.34,10.69c-1,0-1.52-.57-1.52-1.78V257.24c0-1.2.52-1.78,1.58-1.78h9.9a5.16,5.16,0,0,1,2.4.47V249.6h-14.14c-4.46,0-6.18,2.62-6.18,6.39v23.89c0,3.77,1.72,6.39,6.18,6.39h14.14v-6.34a5,5,0,0,1-2.4.47Zm-38.88-24.94h8.18c1,0,1.52.58,1.52,1.78v5.35c0,1.2-.53,1.78-1.52,1.78h-8.18Zm11.21,13.94h.27c1.62,0,4.66-1,4.66-6.24V256c0-3.77-1.73-6.39-6.18-6.39h-16.4v36.67h6.44V270h5.19l5.66,16.24h7Zm-37.66,9.17,1.78,7.7h7.28l-9.22-36.67h-8l-9.32,36.67h7l1.74-7.7ZM944.1,274l3.71-16.61L951.59,274Zm-20.54-18.92a4.51,4.51,0,0,1,1.57.27V249.6H905.38v36.67h20.48v-5.76a4,4,0,0,1-1.51.26H911.82V269.71h8.75a8.28,8.28,0,0,1,1.52.16v-5.66a7.49,7.49,0,0,1-1.52.16h-8.75v-9.28Zm-39,19.24a2.22,2.22,0,0,1,.78,1.83v2.46c0,1.21-.52,1.78-1.57,1.78H873.52a4.81,4.81,0,0,1-2.41-.47v6.34h14.46c4.46,0,6.19-2.62,6.19-6.39v-3.67c0-3-.63-4.77-3.46-7.07l-9.9-8.07a2.09,2.09,0,0,1-.79-1.84v-2c0-1.2.53-1.78,1.41-1.78h9.54a4.92,4.92,0,0,1,2.41.47V249.6H877.35c-4.45,0-6.18,2.62-6.18,6.39v3.19c0,3,.62,4.82,3.45,7.07Zm-27-19.24a4.51,4.51,0,0,1,1.57.27V249.6H839.31v36.67h20.48v-5.76a4,4,0,0,1-1.51.26H845.75V269.71h8.75a8.19,8.19,0,0,1,1.52.16v-5.66a7.42,7.42,0,0,1-1.52.16h-8.75v-9.28Zm-49.09.37h8.17c1,0,1.52.58,1.52,1.78v5.35c0,1.2-.52,1.78-1.52,1.78H808.4Zm11.22,13.94h.26c1.62,0,4.66-1,4.66-6.24V256c0-3.77-1.73-6.39-6.19-6.39H802v36.67h6.44V270h5.19l5.66,16.24h7Zm-70.32-8,4.25,24.83H761L769,249.6h-6.39l-5.3,27.6-4.82-27.6h-6l-4.92,27.6-5.19-27.6H729.6l7.81,36.67h7.49Zm-36.62,17.13,1.78,7.7h7.28l-9.22-36.67h-8l-9.33,36.67h7l1.73-7.7ZM704.56,274l3.72-16.61L712.05,274ZM676.37,249.6h-6.44v36.67h20v-5.76a4.05,4.05,0,0,1-1.52.26h-12Z"/><path class="e" d="M1158.69,188.41a4.56,4.56,0,0,1,1.58.27v-5.77h-19.76v36.68H1161v-5.76a4.23,4.23,0,0,1-1.52.26H1147V203h8.75a7.56,7.56,0,0,1,1.52.16v-5.66a7.56,7.56,0,0,1-1.52.16H1147v-9.28Zm-48.88-5.5H1103l9.22,36.68h8l9.32-36.68h-6.44l-6.65,28.87Zm-24.2,36.68h6.44V182.92h-6.44Zm-20.12-30.81h6.18a4.44,4.44,0,0,1,1.57.26v-6.13h-21.9V189a4.48,4.48,0,0,1,1.57-.26h6.18v30.81h6.4Zm-32.07,23.11,1.78,7.7h7.29l-9.22-36.68h-8l-9.33,36.68h7l1.73-7.7Zm-8.12-4.56,3.72-16.61,3.77,16.61Zm-36.82-18.55h8.17c1,0,1.51.58,1.51,1.78v5.35c0,1.2-.52,1.78-1.51,1.78h-8.17Zm11.2,13.94h.27c1.62,0,4.66-1,4.66-6.24V189.3c0-3.77-1.73-6.39-6.18-6.39H982v36.68h6.45V203.35h5.18l5.66,16.24h7ZM962,211.89l1.79,7.7h7.28l-9.22-36.68h-8l-9.32,36.68h7l1.73-7.7Zm-8.11-4.56,3.71-16.61,3.78,16.61ZM919,188.78h8.17c1,0,1.52.58,1.52,1.78v7c0,1.21-.53,1.78-1.52,1.78H919Zm0,16.4h10.11c4.45,0,6-2.57,6-6.34V189.3c0-3.77-1.73-6.39-6.18-6.39H912.51v36.68H919ZM898,182.91h-9.27l-5,21.43-5-21.43H869v36.68h6.07V190.46l5.14,20.8h6.65l5.14-20.8v29.13h6ZM832,213.2c0,3.77,1.72,6.39,6.18,6.39h10.22c4.45,0,6.18-2.62,6.18-6.39V189.3c0-3.77-1.73-6.39-6.18-6.39H838.16c-4.46,0-6.18,2.62-6.18,6.39Zm16.13-1.26c0,1.2-.52,1.78-1.57,1.78h-6.6c-1,0-1.52-.58-1.52-1.78V190.56c0-1.2.52-1.78,1.57-1.78h6.6c1,0,1.52.58,1.52,1.78Zm-40.34,1.78c-1,0-1.52-.58-1.52-1.78V190.56c0-1.2.52-1.78,1.57-1.78h9.91a5.13,5.13,0,0,1,2.4.47v-6.34H806c-4.45,0-6.18,2.62-6.18,6.39v23.9c0,3.77,1.73,6.39,6.18,6.39h14.14v-6.34a5,5,0,0,1-2.4.47Zm-66.64,5.87h16.4c4.45,0,6.18-2.62,6.18-6.39V189.3c0-3.77-1.73-6.39-6.18-6.39h-16.4Zm6.44-30.81h8.18c1,0,1.52.58,1.52,1.78v21.38c0,1.2-.53,1.78-1.57,1.78h-8.13ZM720,219.59h6.61V182.91h-6v24.73l-10-24.73H704v36.68h6V194.86Zm-36-7.7,1.78,7.7H693l-9.22-36.68h-8l-9.32,36.68h7l1.73-7.7Zm-8.12-4.56,3.72-16.61,3.77,16.61Z"/><path class="e" d="M1069.15,116.23h-6.44v36.68h20v-5.77a4,4,0,0,1-1.52.27h-12Zm-26.45,29,1.78,7.71h7.28l-9.22-36.68h-8l-9.32,36.68h7l1.74-7.71Zm-8.12-4.55,3.71-16.61,3.78,16.61Zm-27,12.26h6.6V116.23h-6V141l-10-24.73h-6.61v36.68h6V128.18Zm-53.07-6.4c0,3.78,1.73,6.4,6.18,6.4h10.22c4.45,0,6.18-2.62,6.18-6.4V122.62c0-3.77-1.73-6.39-6.18-6.39H960.65c-4.45,0-6.18,2.62-6.18,6.39Zm16.14-1.25c0,1.2-.53,1.78-1.58,1.78h-6.6c-1,0-1.52-.58-1.52-1.78V123.88c0-1.2.53-1.78,1.57-1.78h6.6c1,0,1.53.58,1.53,1.78Zm-37,7.65h6.45V116.23h-6.45ZM913.5,122.1h6.18a4.48,4.48,0,0,1,1.57.26v-6.13h-21.9v6.13a4.48,4.48,0,0,1,1.57-.26h6.18v30.81h6.4Zm-32.07,23.1,1.79,7.71h7.28l-9.22-36.68h-8l-9.32,36.68h7l1.73-7.71Zm-8.12-4.55L877,124l3.78,16.61Zm-27,12.26h6.6V116.23h-6V141l-10-24.73h-6.6v36.68h6V128.18ZM799.34,122.1h8.17c1,0,1.52.58,1.52,1.78v5.34c0,1.21-.53,1.79-1.52,1.79h-8.17ZM810.55,136h.26c1.62,0,4.67-1,4.67-6.24v-7.18c0-3.77-1.74-6.39-6.19-6.39h-16.4v36.68h6.45V136.66h5.18l5.66,16.25h7Zm-32.28-14.31a4.49,4.49,0,0,1,1.58.26v-5.76H760.09v36.68h20.49v-5.77a4.08,4.08,0,0,1-1.52.27H766.54V136.35h8.75a7.56,7.56,0,0,1,1.52.16v-5.66a8.37,8.37,0,0,1-1.52.16h-8.75v-9.28ZM740,122.1h6.18a4.48,4.48,0,0,1,1.57.26v-6.13h-21.9v6.13a4.44,4.44,0,0,1,1.57-.26h6.18v30.81H740Zm-33.17,30.81h6.61V116.23h-6V141l-10-24.73h-6.6v36.68h6V128.18Zm-36.88,0h6.44V116.23h-6.44Z"/></svg>