<?xml version="1.0" encoding="utf-8"?>
<!-- Generator: Adobe Illustrator 24.0.2, SVG Export Plug-In . SVG Version: 6.00 Build 0)  -->
<svg version="1.1" id="Layer_1" xmlns="http://www.w3.org/2000/svg" xmlns:xlink="http://www.w3.org/1999/xlink" x="0px" y="0px"
	 viewBox="0 0 1000 300" style="enable-background:new 0 0 1000 300;" xml:space="preserve">
<style type="text/css">
	.st0{fill:#ED1C24;}
	.st1{fill:#39B54A;}
	.st2{fill:#FFCF01;}
	.st3{fill:#0077C0;}
</style>
<g>
	<path d="M838.43,180.64h5.52c0.67,0,1.03,0.39,1.03,1.2v3.61c0,0.81-0.36,1.2-1.03,1.2h-5.52V180.64z M846.01,190.06h0.18
		c1.1,0,3.15-0.67,3.15-4.22v-4.85c0-2.55-1.17-4.32-4.18-4.32h-11.08v24.79h4.35v-10.98h3.51l3.83,10.98h4.71L846.01,190.06z
		 M824.19,180.39c0.32,0,0.67,0.03,1.06,0.18v-3.9H811.9v24.79h13.85v-3.9c-0.35,0.14-0.71,0.18-1.03,0.18h-8.46v-7.47h5.91
		c0.32,0,0.67,0.03,1.03,0.11v-3.82c-0.35,0.07-0.71,0.11-1.03,0.11h-5.91v-6.27H824.19z M798.31,180.64h4.18
		c0.32,0,0.67,0.04,1.06,0.18v-4.14h-14.8v4.14c0.39-0.14,0.75-0.18,1.06-0.18h4.18v20.83h4.32V180.64z M775.89,201.46h4.46v-24.79
		h-4.07v16.72l-6.73-16.72h-4.46v24.79h4.04v-16.72L775.89,201.46z M755.17,180.39c0.32,0,0.67,0.03,1.06,0.18v-3.9h-13.35v24.79
		h13.85v-3.9c-0.36,0.14-0.71,0.18-1.03,0.18h-8.46v-7.47h5.91c0.32,0,0.67,0.03,1.03,0.11v-3.82c-0.35,0.07-0.71,0.11-1.03,0.11
		h-5.91v-6.27H755.17z M726.52,197.49c-0.67,0-1.03-0.39-1.03-1.2v-14.45c0-0.81,0.35-1.2,1.06-1.2h6.69c0.57,0,1.2,0.07,1.63,0.32
		v-4.29h-9.56c-3.01,0-4.18,1.77-4.18,4.32v16.15c0,2.55,1.17,4.32,4.18,4.32h9.56v-4.29c-0.43,0.25-1.06,0.32-1.63,0.32H726.52z"/>
	<path d="M694.93,190.13v11.19h4.35v-24.79h-4.35v9.99h-6.55v-9.99h-4.36v24.79h4.36v-11.19H694.93z M667.66,197.35
		c-0.67,0-1.03-0.39-1.03-1.2V181.7c0-0.81,0.35-1.2,1.06-1.2h6.69c0.57,0,1.2,0.07,1.63,0.32v-4.28h-9.56
		c-3.01,0-4.18,1.77-4.18,4.32V197c0,2.55,1.17,4.32,4.18,4.32h9.56v-4.28c-0.43,0.25-1.06,0.32-1.63,0.32H667.66z M641.38,180.5
		h5.53c0.67,0,1.03,0.39,1.03,1.2v3.61c0,0.81-0.35,1.21-1.03,1.21h-5.53V180.5z M648.96,189.92h0.18c1.1,0,3.16-0.67,3.16-4.22
		v-4.85c0-2.55-1.17-4.32-4.18-4.32h-11.08v24.79h4.36v-10.98h3.51l3.82,10.98h4.71L648.96,189.92z M623.5,196.11l1.2,5.2h4.92
		l-6.23-24.79h-5.42l-6.3,24.79h4.71l1.17-5.2H623.5z M618.01,193.03l2.51-11.23l2.55,11.23H618.01z M604.12,180.25
		c0.32,0,0.67,0.04,1.06,0.18v-3.89h-13.35v24.79h13.85v-3.89c-0.35,0.14-0.71,0.18-1.03,0.18h-8.46v-7.47h5.91
		c0.32,0,0.67,0.04,1.03,0.11v-3.82c-0.36,0.07-0.71,0.11-1.03,0.11h-5.91v-6.27H604.12z M577.74,193.25
		c0.39,0.32,0.53,0.74,0.53,1.24v1.66c0,0.82-0.35,1.2-1.06,1.2h-6.91c-0.6,0-1.24-0.07-1.63-0.32v4.28h9.77
		c3.01,0,4.18-1.77,4.18-4.32v-2.48c0-2.02-0.43-3.22-2.34-4.78l-6.69-5.45c-0.39-0.28-0.53-0.71-0.53-1.24v-1.35
		c0-0.81,0.36-1.2,0.96-1.2h6.45c0.6,0,1.24,0.07,1.63,0.32v-4.28h-9.21c-3.01,0-4.18,1.77-4.18,4.32v2.16
		c0,2.06,0.42,3.26,2.33,4.78L577.74,193.25z M559.47,180.25c0.32,0,0.67,0.04,1.06,0.18v-3.89h-13.35v24.79h13.84v-3.89
		c-0.35,0.14-0.71,0.18-1.03,0.18h-8.46v-7.47h5.91c0.32,0,0.67,0.04,1.03,0.11v-3.82c-0.36,0.07-0.71,0.11-1.03,0.11h-5.91v-6.27
		H559.47z M526.29,180.5h5.52c0.67,0,1.03,0.39,1.03,1.2v3.61c0,0.81-0.35,1.21-1.03,1.21h-5.52V180.5z M533.87,189.92h0.18
		c1.1,0,3.15-0.67,3.15-4.22v-4.85c0-2.55-1.17-4.32-4.18-4.32h-11.08v24.79h4.36v-10.98h3.5l3.83,10.98h4.71L533.87,189.92z
		 M486.34,184.53l2.87,16.78h5.07l5.35-24.79h-4.32l-3.58,18.66l-3.26-18.66h-4.07l-3.33,18.66l-3.51-18.66h-4.53l5.28,24.79h5.07
		L486.34,184.53z M461.59,196.11l1.2,5.2h4.92l-6.23-24.79h-5.42l-6.31,24.79h4.71l1.17-5.2H461.59z M456.1,193.03l2.52-11.23
		l2.55,11.23H456.1z M437.05,176.53h-4.36v24.79h13.49v-3.89c-0.35,0.14-0.71,0.18-1.03,0.18h-8.11V176.53z"/>
	<path d="M763.06,135.17c0.32,0,0.67,0.04,1.06,0.18v-3.9h-13.35v24.79h13.85v-3.9c-0.35,0.14-0.71,0.17-1.03,0.17h-8.46v-7.47h5.91
		c0.32,0,0.67,0.03,1.03,0.11v-3.82c-0.35,0.07-0.71,0.11-1.03,0.11h-5.91v-6.27H763.06z M730.02,131.46h-4.6l6.23,24.79h5.42
		l6.3-24.79h-4.35l-4.5,19.51L730.02,131.46z M713.66,156.25h4.36v-24.79h-4.36V156.25z M700.06,135.42h4.18
		c0.32,0,0.67,0.03,1.06,0.18v-4.14h-14.8v4.14c0.39-0.14,0.75-0.18,1.06-0.18h4.18v20.83h4.32V135.42z M678.39,151.04l1.2,5.21
		h4.92l-6.23-24.79h-5.42l-6.3,24.79h4.71l1.17-5.21H678.39z M672.9,147.96l2.52-11.23l2.55,11.23H672.9z M648,135.42h5.52
		c0.67,0,1.03,0.39,1.03,1.2v3.61c0,0.81-0.35,1.2-1.03,1.2H648V135.42z M655.58,144.84h0.18c1.1,0,3.15-0.67,3.15-4.22v-4.85
		c0-2.55-1.17-4.32-4.18-4.32h-11.08v24.79H648v-10.98h3.5l3.82,10.98h4.71L655.58,144.84z M630.12,151.04l1.21,5.21h4.92
		l-6.23-24.79h-5.42l-6.3,24.79H623l1.17-5.21H630.12z M624.63,147.96l2.51-11.23l2.55,11.23H624.63z M601.01,135.42h5.52
		c0.67,0,1.03,0.39,1.03,1.2v4.74c0,0.82-0.36,1.2-1.03,1.2h-5.52V135.42z M601.01,146.51h6.84c3.01,0,4.07-1.74,4.07-4.29v-6.45
		c0-2.55-1.17-4.32-4.18-4.32h-11.08v24.79h4.35V146.51z M586.88,131.46h-6.27l-3.4,14.49l-3.36-14.49h-6.59v24.79h4.11v-19.69
		l3.47,14.06h4.5l3.47-14.06v19.69h4.07V131.46z M542.22,151.93c0,2.55,1.17,4.32,4.18,4.32h6.91c3.01,0,4.18-1.77,4.18-4.32v-16.15
		c0-2.55-1.17-4.32-4.18-4.32h-6.91c-3.01,0-4.18,1.77-4.18,4.32V151.93z M553.13,151.08c0,0.81-0.36,1.21-1.06,1.21h-4.46
		c-0.67,0-1.03-0.39-1.03-1.21v-14.45c0-0.81,0.35-1.2,1.06-1.2h4.46c0.67,0,1.03,0.39,1.03,1.2V151.08z M525.86,152.28
		c-0.67,0-1.03-0.39-1.03-1.21v-14.45c0-0.81,0.35-1.2,1.06-1.2h6.69c0.57,0,1.2,0.07,1.63,0.32v-4.29h-9.56
		c-3.01,0-4.18,1.77-4.18,4.32v16.15c0,2.55,1.17,4.32,4.18,4.32h9.56v-4.29c-0.42,0.25-1.06,0.32-1.63,0.32H525.86z M480.82,156.25
		h11.09c3.01,0,4.18-1.77,4.18-4.32v-16.15c0-2.55-1.17-4.32-4.18-4.32h-11.09V156.25z M485.17,135.42h5.52
		c0.67,0,1.03,0.39,1.03,1.2v14.45c0,0.81-0.36,1.21-1.06,1.21h-5.49V135.42z M466.54,156.25h4.46v-24.79h-4.07v16.72l-6.73-16.72
		h-4.46v24.79h4.04v-16.72L466.54,156.25z M442.18,151.04l1.2,5.21h4.92l-6.23-24.79h-5.42l-6.3,24.79h4.71l1.17-5.21H442.18z
		 M436.69,147.96l2.52-11.23l2.55,11.23H436.69z"/>
	<path d="M702.54,86.38h-4.36v24.79h13.49v-3.9c-0.35,0.14-0.71,0.18-1.03,0.18h-8.11V86.38z M684.65,105.97l1.2,5.21h4.92
		l-6.23-24.79h-5.42l-6.3,24.79h4.71l1.17-5.21H684.65z M679.17,102.89l2.51-11.23l2.55,11.23H679.17z M660.89,111.17h4.46V86.38
		h-4.07v16.72l-6.73-16.72h-4.46v24.79h4.04V94.46L660.89,111.17z M625.02,106.85c0,2.55,1.17,4.32,4.18,4.32h6.91
		c3.01,0,4.18-1.77,4.18-4.32V90.71c0-2.55-1.17-4.32-4.18-4.32h-6.91c-3.01,0-4.18,1.77-4.18,4.32V106.85z M635.93,106
		c0,0.81-0.35,1.2-1.06,1.2h-4.46c-0.67,0-1.03-0.39-1.03-1.2V91.55c0-0.81,0.35-1.2,1.06-1.2h4.46c0.67,0,1.03,0.39,1.03,1.2V106z
		 M610.92,111.17h4.36V86.38h-4.36V111.17z M597.33,90.35h4.18c0.32,0,0.67,0.03,1.06,0.18v-4.14h-14.8v4.14
		c0.39-0.14,0.74-0.18,1.06-0.18H593v20.82h4.32V90.35z M575.65,105.97l1.2,5.21h4.92l-6.23-24.79h-5.42l-6.3,24.79h4.71l1.17-5.21
		H575.65z M570.16,102.89l2.51-11.23l2.55,11.23H570.16z M551.89,111.17h4.46V86.38h-4.07v16.72l-6.73-16.72h-4.46v24.79h4.04V94.46
		L551.89,111.17z M520.16,90.35h5.53c0.67,0,1.03,0.39,1.03,1.2v3.61c0,0.81-0.35,1.2-1.03,1.2h-5.53V90.35z M527.74,99.77h0.18
		c1.1,0,3.16-0.67,3.16-4.21v-4.85c0-2.55-1.17-4.32-4.18-4.32H515.8v24.79h4.36V100.2h3.51l3.82,10.98h4.71L527.74,99.77z
		 M505.92,90.1c0.32,0,0.67,0.03,1.06,0.18v-3.9h-13.35v24.79h13.85v-3.9c-0.36,0.14-0.71,0.18-1.03,0.18h-8.46v-7.47h5.91
		c0.32,0,0.67,0.04,1.03,0.11v-3.82c-0.35,0.07-0.71,0.11-1.03,0.11h-5.91V90.1H505.92z M480.04,90.35h4.18
		c0.32,0,0.67,0.03,1.06,0.18v-4.14h-14.8v4.14c0.39-0.14,0.74-0.18,1.06-0.18h4.18v20.82h4.32V90.35z M457.62,111.17h4.46V86.38
		h-4.07v16.72l-6.73-16.72h-4.46v24.79h4.04V94.46L457.62,111.17z M432.69,111.17h4.36V86.38h-4.36V111.17z"/>
</g>
<g>
	<g>
		<path d="M328.67,177.39v48.32h-48.32v-48.32H328.67 M331.5,174.55h-53.99v53.99h53.99V174.55L331.5,174.55z"/>
	</g>
	<g>
		<path d="M207.59,147.67v48.32h-48.32v-48.32H207.59 M210.42,144.84h-53.99v53.99h53.99V144.84L210.42,144.84z"/>
	</g>
	<g>
		<path d="M268.8,59.26v48.32h-48.32V59.26H268.8 M271.63,56.43h-53.99v53.99h53.99V56.43L271.63,56.43z"/>
	</g>
	<g>
		<path d="M389.39,88.98v48.32h-48.32V88.98H389.39 M392.22,86.14h-53.99v53.99h53.99V86.14L392.22,86.14z"/>
	</g>
	<g>
		<path d="M268.8,121.64v47.61l-48.32,24.92v-47.61L268.8,121.64 M271.63,116.99l-53.99,27.85v53.99l53.99-27.85V116.99
			L271.63,116.99z"/>
	</g>
	<g>
		<path d="M389.39,151.36v47.61l-48.32,24.92v-47.61L389.39,151.36 M392.23,146.71l-53.99,27.85v53.99l53.99-27.85V146.71
			L392.23,146.71z"/>
	</g>
	<g>
		<path d="M207.59,61.08v47.61l-48.32,24.92V86L207.59,61.08 M210.42,56.43l-53.99,27.85v53.99l53.99-27.85V56.43L210.42,56.43z"/>
	</g>
	<g>
		<path d="M328.67,90.8v47.61l-48.32,24.92v-47.61L328.67,90.8 M331.5,86.14l-53.99,27.85v53.99l53.99-27.85V86.14L331.5,86.14z"/>
	</g>
</g>
</svg>
