<?xml version="1.0" encoding="utf-8"?>
<!-- Generator: Adobe Illustrator 24.0.2, SVG Export Plug-In . SVG Version: 6.00 Build 0)  -->
<svg version="1.1" id="Layer_1" xmlns="http://www.w3.org/2000/svg" xmlns:xlink="http://www.w3.org/1999/xlink" x="0px" y="0px"
	 viewBox="0 0 1000 300" style="enable-background:new 0 0 1000 300;" xml:space="preserve">
<style type="text/css">
	.st0{fill:#ED1C24;}
	.st1{fill:#39B54A;}
	.st2{fill:#FFCF01;}
	.st3{fill:#0077C0;}
</style>
<g>
	<polygon points="222.13,228.54 276.12,228.54 276.12,174.55 222.13,174.55 222.13,228.54 	"/>
	<polygon points="101.05,198.82 155.04,198.82 155.04,144.84 101.05,144.84 101.05,198.82 	"/>
	<polygon points="162.26,110.42 216.25,110.42 216.25,56.43 162.26,56.43 162.26,110.42 	"/>
	<polygon points="336.84,140.13 282.85,140.13 282.85,86.14 336.84,86.14 336.84,140.13 	"/>
	<polygon class="st0" points="216.25,170.98 162.26,198.82 162.26,144.84 216.25,116.99 216.25,170.98 	"/>
	<polygon class="st1" points="282.85,174.55 282.85,228.54 336.84,200.69 336.84,146.71 282.85,174.55 	"/>
	<polygon class="st2" points="155.04,56.43 101.05,84.27 101.05,138.26 155.04,110.42 155.04,56.43 	"/>
	<polygon class="st3" points="276.12,140.13 222.13,167.98 222.13,113.99 276.12,86.14 276.12,140.13 	"/>
</g>
<g>
	<g>
		<path d="M639.31,177.06v24.24h4.36l6.65-16.42v16.42h3.91v-24.24h-4.33l-6.65,16.48v-16.48H639.31z M651.5,172.49h-2.77v0.45
			c0,0.8-0.31,1.04-1,1.04h-1.77c-0.69,0-1.04-0.28-1.04-1.04v-0.45h-2.81v0.97c0,1.8,1.04,2.7,2.98,2.7h3.39
			c1.87,0,3.01-0.83,3.01-2.77V172.49z M614.76,177.06v24.24h4.36l6.65-16.42v16.42h3.91v-24.24h-4.33l-6.65,16.48v-16.48H614.76z
			 M600.94,190.36v10.94h4.26v-24.24h-4.26v9.77h-6.41v-9.77h-4.26v24.24h4.26v-10.94H600.94z M577.04,196.21l1.18,5.09h4.81
			l-6.1-24.24h-5.3l-6.16,24.24h4.61l1.14-5.09H577.04z M571.67,193.2l2.46-10.98l2.49,10.98H571.67z M552.84,190.18
			c0.73,0,1.07,0.42,1.07,1.28v4.99c0,0.8-0.38,1.18-1.07,1.18h-5.37v-7.45H552.84z M553.91,181.87v3.84c0,0.87-0.35,1.28-1.07,1.28
			h-5.37v-6.3h5.44C553.53,180.69,553.91,181.08,553.91,181.87 M554.15,188.63c2.91-0.07,3.98-1.63,3.98-4.26v-3.08
			c0-2.49-1.11-4.23-4.05-4.23h-10.84v24.24h10.84c2.94,0,4.05-1.73,4.05-4.23v-4.12C558.13,190.29,557.06,188.76,554.15,188.63
			 M518.79,197.08c0,2.49,1.14,4.23,4.09,4.23h6.75c2.94,0,4.09-1.73,4.09-4.23v-15.79c0-2.49-1.14-4.23-4.09-4.23h-6.75
			c-2.94,0-4.09,1.73-4.09,4.23V197.08z M529.46,196.24c0,0.8-0.35,1.18-1.04,1.18h-4.36c-0.66,0-1-0.38-1-1.18v-14.13
			c0-0.8,0.35-1.18,1.04-1.18h4.36c0.66,0,1,0.38,1,1.18V196.24z M499.05,180.52h3.98v17.32h-7.1L499.05,180.52z M488.63,197.84
			v9.25h4.19v-5.78h13.47v5.78h4.19v-9.25h-3.26v-20.78h-11.77l-3.74,20.78H488.63z M481.15,180.69c0.31,0,0.66,0.03,1.04,0.17
			v-3.81h-13.06v24.24h13.54v-3.81c-0.35,0.14-0.69,0.17-1,0.17h-8.28v-7.31h5.78c0.31,0,0.66,0.03,1,0.1v-3.74
			c-0.35,0.07-0.69,0.1-1,0.1h-5.78v-6.13H481.15z M447.31,177.06l-4.36,24.24h4.47l3.74-20.54h4.23v20.54h4.19v-24.24H447.31z
			 M428.2,197.42c-0.66,0-1-0.38-1-1.18v-14.13c0-0.8,0.35-1.18,1.04-1.18h6.55c0.55,0,1.18,0.07,1.59,0.31v-4.19h-9.35
			c-2.94,0-4.09,1.73-4.09,4.23v15.79c0,2.49,1.14,4.23,4.09,4.23h9.35v-4.19c-0.42,0.24-1.04,0.31-1.59,0.31H428.2z M406.93,197.42
			c-0.66,0-1-0.38-1-1.18v-14.13c0-0.8,0.35-1.18,1.04-1.18h6.55c0.55,0,1.18,0.07,1.59,0.31v-4.19h-9.35
			c-2.94,0-4.09,1.73-4.09,4.23v15.79c0,2.49,1.14,4.23,4.09,4.23h9.35v-4.19c-0.42,0.24-1.04,0.31-1.59,0.31H406.93z
			 M377.11,177.06v24.24h4.36l6.65-16.42v16.42h3.91v-24.24h-4.33l-6.65,16.48v-16.48H377.11z"/>
	</g>
	<path d="M900.9,142.02l5.85-11.64h-4.85l-3.6,8.8l-3.67-8.8h-5.09l5.99,11.77l-6.44,12.47h4.81l4.16-9.28l4.16,9.28h5.09
		L900.9,142.02z M877.52,154.63h4.19v-24.24h-4.19V154.63z M859.9,130.39v24.24h10.81c2.94,0,4.05-1.73,4.05-4.23v-7.58
		c0-2.46-1.11-4.19-4.05-4.19h-6.61v-8.24H859.9z M864.09,142.23h5.44c0.69,0,1.04,0.38,1.04,1.18v6.41c0,0.8-0.35,1.21-1.07,1.21
		h-5.4V142.23z M844.94,143.51c0.73,0,1.07,0.42,1.07,1.28v4.99c0,0.8-0.38,1.18-1.07,1.18h-5.37v-7.45H844.94z M846.01,135.2v3.84
		c0,0.87-0.35,1.28-1.07,1.28h-5.37v-6.3H845C845.63,134.02,846.01,134.4,846.01,135.2 M846.25,141.95
		c2.91-0.07,3.98-1.63,3.98-4.26v-3.08c0-2.49-1.11-4.23-4.05-4.23h-10.84v24.24h10.84c2.94,0,4.05-1.73,4.05-4.23v-4.12
		C850.23,143.62,849.16,142.09,846.25,141.95 M810.89,150.4c0,2.49,1.14,4.23,4.09,4.23h6.75c2.94,0,4.09-1.73,4.09-4.23v-15.79
		c0-2.49-1.14-4.23-4.09-4.23h-6.75c-2.94,0-4.09,1.73-4.09,4.23V150.4z M821.56,149.57c0,0.8-0.35,1.18-1.04,1.18h-4.36
		c-0.66,0-1-0.38-1-1.18v-14.13c0-0.8,0.35-1.18,1.04-1.18h4.36c0.66,0,1,0.38,1,1.18V149.57z M795.97,143.51
		c0.73,0,1.07,0.42,1.07,1.28v4.99c0,0.8-0.38,1.18-1.07,1.18h-5.37v-7.45H795.97z M797.04,135.2v3.84c0,0.87-0.35,1.28-1.07,1.28
		h-5.37v-6.3h5.44C796.66,134.02,797.04,134.4,797.04,135.2 M797.28,141.95c2.91-0.07,3.98-1.63,3.98-4.26v-3.08
		c0-2.49-1.11-4.23-4.05-4.23h-10.84v24.24h10.84c2.94,0,4.05-1.73,4.05-4.23v-4.12C801.27,143.62,800.19,142.09,797.28,141.95
		 M773.18,149.54l1.18,5.09h4.81l-6.1-24.24h-5.3l-6.16,24.24h4.61l1.14-5.09H773.18z M767.81,146.52l2.46-10.98l2.49,10.98H767.81z
		 M744.71,134.26h5.4c0.66,0,1,0.38,1,1.18v4.64c0,0.8-0.35,1.18-1,1.18h-5.4V134.26z M744.71,145.1h6.68c2.94,0,3.98-1.7,3.98-4.19
		v-6.3c0-2.49-1.14-4.23-4.09-4.23h-10.84v24.24h4.26V145.1z M726.63,133.88v20.74h4.26v-24.24h-14.93v24.24h4.26v-20.74H726.63z"/>
	<path d="M704.25,143.03h-6.79v3.39h6.79V143.03z M673.21,150.44c0,2.49,1.14,4.23,4.09,4.23h6.75c2.94,0,4.09-1.73,4.09-4.23
		v-15.79c0-2.49-1.14-4.23-4.09-4.23h-6.75c-2.94,0-4.09,1.73-4.09,4.23V150.44z M683.88,149.61c0,0.8-0.35,1.18-1.04,1.18h-4.36
		c-0.66,0-1-0.38-1-1.18v-14.13c0-0.8,0.35-1.18,1.04-1.18h4.36c0.66,0,1,0.38,1,1.18V149.61z M659.4,143.72v10.94h4.26v-24.24
		h-4.26v9.77h-6.41v-9.77h-4.26v24.24h4.26v-10.94H659.4z M624.63,130.42v24.24h10.81c2.94,0,4.05-1.73,4.05-4.23v-7.58
		c0-2.46-1.11-4.19-4.05-4.19h-6.61v-8.24H624.63z M628.82,142.26h5.44c0.69,0,1.04,0.38,1.04,1.18v6.41c0,0.8-0.35,1.21-1.07,1.21
		h-5.4V142.26z M602.77,130.42l-4.36,24.24h4.47l3.74-20.54h4.23v20.54h4.19v-24.24H602.77z M589.99,134.06
		c0.31,0,0.66,0.03,1.04,0.17v-3.81h-13.06v24.24h13.54v-3.81c-0.35,0.14-0.69,0.17-1,0.17h-8.28v-7.31h5.78c0.31,0,0.66,0.03,1,0.1
		v-3.74c-0.35,0.07-0.69,0.1-1,0.1h-5.78v-6.13H589.99z M564.68,134.3h4.09c0.31,0,0.66,0.03,1.04,0.17v-4.05h-14.48v4.05
		c0.38-0.14,0.73-0.17,1.04-0.17h4.09v20.36h4.22V134.3z M532.16,130.42v24.24h4.36l6.65-16.42v16.42h3.91v-24.24h-4.33l-6.65,16.48
		v-16.48H532.16z M518.34,143.72v10.94h4.26v-24.24h-4.26v9.77h-6.41v-9.77h-4.26v24.24h4.26v-10.94H518.34z M492.75,143.55
		c0.73,0,1.07,0.42,1.07,1.28v4.99c0,0.8-0.38,1.18-1.07,1.18h-5.37v-7.45H492.75z M493.82,135.23v3.84c0,0.87-0.35,1.28-1.07,1.28
		h-5.37v-6.3h5.44C493.44,134.06,493.82,134.44,493.82,135.23 M494.06,141.99c2.91-0.07,3.98-1.63,3.98-4.26v-3.08
		c0-2.49-1.11-4.23-4.05-4.23h-10.84v24.24H494c2.94,0,4.05-1.73,4.05-4.23v-4.12C498.05,143.65,496.97,142.13,494.06,141.99
		 M469.96,149.57l1.18,5.09h4.81l-6.1-24.24h-5.3l-6.16,24.24H463l1.14-5.09H469.96z M464.59,146.56l2.46-10.98l2.49,10.98H464.59z
		 M441.49,134.3h5.4c0.66,0,1,0.38,1,1.18v4.64c0,0.8-0.35,1.18-1,1.18h-5.4V134.3z M441.49,145.14h6.68c2.94,0,3.98-1.7,3.98-4.19
		v-6.3c0-2.49-1.14-4.23-4.09-4.23h-10.84v24.24h4.26V145.14z M421.23,150.78c-0.66,0-1-0.38-1-1.18v-14.13
		c0-0.8,0.35-1.18,1.04-1.18h6.55c0.55,0,1.18,0.07,1.59,0.31v-4.19h-9.35c-2.94,0-4.09,1.73-4.09,4.23v15.79
		c0,2.49,1.14,4.23,4.09,4.23h9.35v-4.19c-0.42,0.24-1.04,0.31-1.59,0.31H421.23z M377.11,130.42v24.24h4.36l6.65-16.42v16.42h3.91
		v-24.24h-4.33l-6.65,16.48v-16.48H377.11z"/>
	<path d="M829.99,97.98l5.85-11.64H831l-3.6,8.8l-3.67-8.8h-5.09l5.99,11.77l-6.44,12.47H823l4.16-9.28l4.16,9.28h5.09L829.99,97.98
		z M806.62,110.59h4.19V86.34h-4.19V110.59z M788.99,86.34v24.24h10.81c2.94,0,4.05-1.73,4.05-4.23v-7.58
		c0-2.46-1.11-4.19-4.05-4.19h-6.61v-8.24H788.99z M793.18,98.19h5.44c0.69,0,1.04,0.38,1.04,1.18v6.41c0,0.8-0.35,1.21-1.07,1.21
		h-5.4V98.19z M775.14,99.64v10.94h4.26V86.34h-4.26v9.77h-6.41v-9.77h-4.26v24.24h4.26V99.64H775.14z M744.73,89.81h3.98v17.32
		h-7.1L744.73,89.81z M734.3,107.12v9.25h4.19v-5.78h13.47v5.78h4.19v-9.25h-3.26V86.34h-11.77l-3.74,20.78H734.3z M712,106.36
		c0,2.49,1.14,4.23,4.09,4.23h6.75c2.94,0,4.09-1.73,4.09-4.23V90.57c0-2.49-1.14-4.23-4.09-4.23h-6.75c-2.94,0-4.09,1.73-4.09,4.23
		V106.36z M722.67,105.53c0,0.8-0.35,1.18-1.04,1.18h-4.36c-0.66,0-1-0.38-1-1.18V91.4c0-0.8,0.35-1.18,1.04-1.18h4.36
		c0.66,0,1,0.38,1,1.18V105.53z M692.82,90.22h5.4c0.66,0,1,0.38,1,1.18v4.64c0,0.8-0.35,1.18-1,1.18h-5.4V90.22z M692.82,101.06
		h6.68c2.94,0,3.98-1.7,3.98-4.19v-6.3c0-2.49-1.14-4.23-4.09-4.23h-10.84v24.24h4.26V101.06z M675.33,105.49l1.18,5.09h4.81
		l-6.1-24.24h-5.3l-6.16,24.24h4.61l1.14-5.09H675.33z M669.96,102.48l2.46-10.98l2.49,10.98H669.96z M652.23,99.64v10.94h4.26
		V86.34h-4.26v9.77h-6.41v-9.77h-4.26v24.24h4.26V99.64H652.23z M618.95,86.34l5.37,17.32h0.48l-0.69,1.9
		c-0.24,0.76-0.83,1.21-1.63,1.21h-1.97c-0.31,0-0.66-0.03-1-0.17v3.98h3.36c3.05,0,4.57-1.8,5.26-4.16l6.23-20.09h-4.33
		l-3.22,12.12l-3.32-12.12H618.95z M601.21,89.81h3.98v17.32h-7.1L601.21,89.81z M590.79,107.12v9.25h4.19v-5.78h13.47v5.78h4.19
		v-9.25h-3.26V86.34h-11.77l-3.74,20.78H590.79z M558.13,86.34l3.84,9.56c0.31,0.83,1.07,1.63,1.94,1.94
		c-0.9,0.24-1.63,0.97-2.08,2.11l-4.16,10.63h4.85l3.39-9.45c0.35-1.07,0.76-1.49,1.59-1.49h1.8v10.94h4.23V99.64h1.77
		c0.87,0,1.25,0.42,1.63,1.49l3.39,9.45h4.85l-4.19-10.63c-0.42-1.14-1.14-1.87-2.04-2.11c0.83-0.31,1.63-1.11,1.94-1.94l3.81-9.56
		h-4.64l-3.12,8.31c-0.35,1-0.87,1.45-1.63,1.45h-1.77v-9.77h-4.23v9.77h-1.77c-0.76,0-1.28-0.45-1.66-1.45l-3.08-8.31H558.13z
		 M549.75,89.98c0.31,0,0.66,0.03,1.04,0.17v-3.81h-13.06v24.24h13.54v-3.81c-0.35,0.14-0.69,0.17-1,0.17H542v-7.31h5.78
		c0.31,0,0.66,0.03,1,0.1v-3.74c-0.35,0.07-0.69,0.1-1,0.1H542v-6.13H549.75z M528.18,86.34h-6.13l-3.32,14.16l-3.29-14.16h-6.44
		v24.24h4.02V91.33l3.39,13.75h4.4l3.39-13.75v19.26h3.98V86.34z M475.5,90.22h5.4c0.66,0,1,0.38,1,1.18v4.64
		c0,0.8-0.35,1.18-1,1.18h-5.4V90.22z M475.5,101.06h6.68c2.94,0,3.98-1.7,3.98-4.19v-6.3c0-2.49-1.14-4.23-4.09-4.23h-10.84v24.24
		h4.26V101.06z M457.94,90.22h4.09c0.31,0,0.66,0.03,1.04,0.17v-4.05h-14.48v4.05c0.38-0.14,0.73-0.17,1.04-0.17h4.09v20.36h4.23
		V90.22z M436.16,99.64v10.94h4.26V86.34h-4.26v9.77h-6.41v-9.77h-4.26v24.24h4.26V99.64H436.16z M415.83,89.98
		c0.31,0,0.66,0.03,1.04,0.17v-3.81h-13.06v24.24h13.54v-3.81c-0.35,0.14-0.69,0.17-1,0.17h-8.28v-7.31h5.78c0.31,0,0.66,0.03,1,0.1
		v-3.74c-0.35,0.07-0.69,0.1-1,0.1h-5.78v-6.13H415.83z M377.15,86.34v24.24h14.51v5.78h4.23v-9.45h-3.88V86.34h-4.19v20.54h-6.48
		V86.34H377.15z"/>
</g>
</svg>
