<svg xmlns="http://www.w3.org/2000/svg" viewBox="0 0 1454 474"><defs><style>.a{fill:#ed1c24;}.b{fill:#39b54a;}.c{fill:#ffcf01;}.d{fill:#0077c0;}</style></defs><title>ICLRC_logo_vector_</title><path d="M1064.6,316.85v36.58h6.58l10-24.77v24.77h5.9V316.85h-6.53l-10,24.87V316.85ZM1083,310h-4.18v.68c0,1.2-.47,1.57-1.51,1.57h-2.67c-1,0-1.57-.42-1.57-1.57V310h-4.23v1.46c0,2.72,1.57,4.08,4.5,4.08h5.12c2.82,0,4.54-1.25,4.54-4.18Zm-55.45,6.9v36.58h6.59l10-24.77v24.77h5.9V316.85h-6.53l-10,24.87V316.85Zm-20.84,20.07v16.51h6.42V316.85h-6.42v14.74H997V316.85H990.6v36.58H997V336.92Zm-36.06,8.83,1.78,7.68h7.26l-9.2-36.58h-8l-9.3,36.58h7l1.73-7.68Zm-8.1-4.55,3.71-16.56L970,341.2Zm-28.43-4.54c1.1,0,1.62.62,1.62,1.93v7.53c0,1.2-.57,1.77-1.62,1.77H926V336.66Zm1.62-12.54v5.79c0,1.31-.52,1.94-1.62,1.94H926v-9.51h8.21c.94,0,1.51.57,1.51,1.78m.37,10.19c4.39-.11,6-2.46,6-6.43v-4.65c0-3.77-1.67-6.38-6.11-6.38H919.63v36.58H936c4.44,0,6.11-2.61,6.11-6.37v-6.22c0-4-1.61-6.33-6-6.53m-53.36,12.75c0,3.76,1.72,6.37,6.17,6.37H899.1c4.44,0,6.16-2.61,6.16-6.37V323.23c0-3.77-1.72-6.38-6.16-6.38H888.91c-4.45,0-6.17,2.61-6.17,6.38Zm16.1-1.26c0,1.2-.53,1.78-1.57,1.78h-6.59c-1,0-1.51-.58-1.51-1.78V324.48c0-1.2.52-1.78,1.57-1.78h6.58c1,0,1.52.58,1.52,1.78ZM853,322.08h6v26.13H848.25Zm-15.73,26.13v14h6.33v-8.73h20.32v8.73h6.33v-14h-4.92V316.85H847.52l-5.65,31.36Zm-11.29-25.87a4.44,4.44,0,0,1,1.57.26v-5.75H807.8v36.58h20.43v-5.75a4,4,0,0,1-1.51.26H814.23v-11H823a7.42,7.42,0,0,1,1.52.16v-5.65a8.19,8.19,0,0,1-1.52.16h-8.72v-9.25Zm-51-5.49-6.59,36.58H775l5.65-31h6.37v31h6.33V316.85ZM746,347.58c-1,0-1.51-.58-1.51-1.78V324.48c0-1.2.52-1.78,1.56-1.78H756a5.1,5.1,0,0,1,2.4.47v-6.32H744.25c-4.44,0-6.16,2.61-6.16,6.38v23.83c0,3.76,1.72,6.37,6.16,6.37h14.11v-6.32a5.1,5.1,0,0,1-2.4.47Zm-32.09,0c-1,0-1.51-.58-1.51-1.78V324.48c0-1.2.52-1.78,1.57-1.78h9.87a5.17,5.17,0,0,1,2.41.47v-6.32H712.17c-4.44,0-6.17,2.61-6.17,6.38v23.83c0,3.76,1.73,6.37,6.17,6.37h14.11v-6.32a5.17,5.17,0,0,1-2.41.47Zm-45-30.73v36.58h6.58l10-24.77v24.77h5.9V316.85h-6.53l-10,24.87V316.85Z"/><path d="M948,267.9l8.83-17.56h-7.31l-5.44,13.27-5.54-13.27h-7.68l9,17.77-9.72,18.81h7.26l6.27-14,6.28,14h7.68Zm-35.27,19h6.32V250.34h-6.32Zm-26.61-36.58v36.58h16.31c4.44,0,6.11-2.61,6.11-6.37V269.1c0-3.71-1.67-6.32-6.11-6.32h-10V250.34Zm6.33,17.87h8.2c1.05,0,1.57.58,1.57,1.78v9.67c0,1.2-.52,1.83-1.62,1.83h-8.15Zm-28.9,1.93c1.1,0,1.62.63,1.62,1.94v7.53c0,1.2-.57,1.77-1.62,1.77h-8.1V270.14Zm1.62-12.54v5.8c0,1.31-.52,1.94-1.62,1.94h-8.1v-9.51h8.2c1,0,1.52.57,1.52,1.77m.37,10.19c4.38-.1,6-2.45,6-6.42v-4.66c0-3.76-1.68-6.37-6.12-6.37H849.08v36.58h16.36c4.44,0,6.12-2.61,6.12-6.37v-6.22c0-4-1.63-6.33-6-6.54m-53.36,12.76c0,3.76,1.72,6.37,6.17,6.37h10.19c4.44,0,6.16-2.61,6.16-6.37V256.71c0-3.76-1.72-6.37-6.16-6.37H818.36c-4.45,0-6.17,2.61-6.17,6.37Zm16.1-1.26c0,1.2-.53,1.78-1.57,1.78h-6.59c-1,0-1.51-.58-1.51-1.78V258c0-1.2.52-1.78,1.57-1.78h6.58c1,0,1.52.58,1.52,1.78Zm-38.62-9.15c1.09,0,1.62.63,1.62,1.94v7.53c0,1.2-.58,1.77-1.62,1.77h-8.1V270.14Zm1.62-12.54v5.8c0,1.31-.53,1.94-1.62,1.94h-8.1v-9.51h8.2c.94,0,1.52.57,1.52,1.77m.36,10.19c4.4-.1,6-2.45,6-6.42v-4.66c0-3.76-1.67-6.37-6.11-6.37H775.19v36.58h16.36c4.44,0,6.11-2.61,6.11-6.37v-6.22c0-4-1.61-6.33-6-6.54m-36.37,11.45,1.78,7.68h7.26l-9.2-36.58h-8l-9.3,36.58h6.95l1.72-7.68Zm-8.1-4.55,3.71-16.57,3.77,16.57Zm-34.85-18.5h8.15c1,0,1.51.58,1.51,1.78v7c0,1.2-.52,1.78-1.51,1.78h-8.15Zm0,16.36h10.08c4.44,0,6-2.56,6-6.33v-9.51c0-3.76-1.72-6.37-6.17-6.37H705.9v36.58h6.43Zm-27.28-16.93v31.3h6.42V250.34H669v36.58h6.43v-31.3Z"/><path d="M1162.58,202.85h-10.24V208h10.24ZM1115.76,214c0,3.77,1.72,6.38,6.17,6.38h10.19c4.44,0,6.16-2.61,6.16-6.38V190.2c0-3.76-1.72-6.37-6.16-6.37h-10.19c-4.45,0-6.17,2.61-6.17,6.37Zm16.1-1.25c0,1.2-.53,1.78-1.57,1.78h-6.59c-1,0-1.51-.58-1.51-1.78V191.46c0-1.21.52-1.78,1.57-1.78h6.58c1,0,1.52.57,1.52,1.78Zm-36.95-8.88v16.51h6.43V183.83h-6.43v14.74h-9.67V183.83h-6.43v36.58h6.43V203.9Zm-52.47-20.07v36.58h16.3c4.45,0,6.12-2.61,6.12-6.38V202.59c0-3.71-1.67-6.33-6.12-6.33h-10V183.83Zm6.32,17.87H1057c1,0,1.57.57,1.57,1.78v9.66c0,1.21-.53,1.83-1.62,1.83h-8.16Zm-39.3-17.87-6.58,36.58h6.74l5.64-31h6.38v31H1028V183.83Zm-19.28,5.48a4.51,4.51,0,0,1,1.57.27v-5.75h-19.7v36.58h20.43v-5.75a4,4,0,0,1-1.52.26H978.48v-11h8.72a8.31,8.31,0,0,1,1.52.15v-5.64a8.37,8.37,0,0,1-1.52.16h-8.72v-9.26Zm-38.2.37h6.17a4.48,4.48,0,0,1,1.57.26v-6.11H937.87v6.11a4.44,4.44,0,0,1,1.57-.26h6.17v30.73H952Zm-49.07-5.85v36.58h6.58l10-24.77v24.77h5.9V183.83H918.9l-10,24.87V183.83ZM882.06,203.9v16.51h6.43V183.83h-6.43v14.74h-9.67V183.83H866v36.58h6.43V203.9Zm-38.62-.27c1.1,0,1.62.63,1.62,1.94v7.52c0,1.2-.57,1.78-1.62,1.78h-8.1V203.63Zm1.62-12.54v5.8c0,1.31-.52,1.94-1.62,1.94h-8.1v-9.52h8.21c.94,0,1.51.58,1.51,1.78m.37,10.19c4.39-.1,6-2.45,6-6.43V190.2c0-3.76-1.68-6.37-6.12-6.37H829v36.58h16.36c4.44,0,6.12-2.61,6.12-6.38v-6.21c0-4-1.62-6.33-6-6.54m-36.38,11.45,1.78,7.68h7.27l-9.2-36.58h-8l-9.3,36.58h6.95l1.72-7.68Zm-8.1-4.55,3.71-16.56,3.77,16.56Zm-34.85-18.5h8.15c1,0,1.52.57,1.52,1.78v7c0,1.2-.53,1.78-1.52,1.78H766.1Zm0,16.36h10.08c4.44,0,6-2.56,6-6.32V190.2c0-3.76-1.72-6.37-6.16-6.37H759.67v36.58h6.43Zm-30.57,8.52c-1,0-1.52-.58-1.52-1.78V191.46c0-1.21.52-1.78,1.57-1.78h9.88a5.16,5.16,0,0,1,2.4.47v-6.32H733.75c-4.44,0-6.17,2.61-6.17,6.37V214c0,3.77,1.73,6.38,6.17,6.38h14.11v-6.32a5.16,5.16,0,0,1-2.4.47ZM669,183.83v36.58h6.58l10-24.77v24.77h5.9V183.83h-6.53l-10,24.87V183.83Z"/><path d="M1352.33,134.87l8.84-17.55h-7.32l-5.44,13.27-5.54-13.27h-7.68l9,17.76-9.72,18.82h7.27l6.27-14,6.27,14H1362Zm-35.27,19h6.32V117.32h-6.32Zm-26.6-36.58V153.9h16.3c4.45,0,6.12-2.62,6.12-6.38V136.08c0-3.71-1.67-6.33-6.12-6.33h-10V117.32Zm6.32,17.87H1305c1,0,1.56.57,1.56,1.77v9.67c0,1.21-.52,1.83-1.61,1.83h-8.16Zm-27.22,2.19V153.9H1276V117.32h-6.42v14.73h-9.67V117.32h-6.43V153.9h6.43V137.38Zm-45.89-14.84h6v26.13H1219Zm-15.73,26.13v14h6.32V153.9h20.33v8.73h6.33v-14H1236V117.32h-17.77l-5.65,31.35Zm-33.65-1.15c0,3.76,1.72,6.38,6.16,6.38h10.19c4.45,0,6.17-2.62,6.17-6.38V123.69c0-3.76-1.72-6.37-6.17-6.37h-10.19c-4.44,0-6.16,2.61-6.16,6.37Zm16.09-1.25c0,1.2-.52,1.77-1.56,1.77h-6.59c-1,0-1.51-.57-1.51-1.77V124.94c0-1.2.52-1.77,1.56-1.77h6.59c1,0,1.51.57,1.51,1.77Zm-45-23.1h8.15c1,0,1.52.57,1.52,1.77v7c0,1.2-.53,1.78-1.52,1.78h-8.15Zm0,16.36h10.08c4.45,0,6-2.57,6-6.33v-9.51c0-3.76-1.72-6.37-6.16-6.37h-16.36V153.9h6.43ZM1119,146.21l1.77,7.69H1128l-9.2-36.58h-8l-9.3,36.58h7l1.73-7.69Zm-8.1-4.54,3.71-16.57,3.76,16.57Zm-26.76-4.29V153.9h6.43V117.32h-6.43v14.73h-9.67V117.32H1068V153.9h6.42V137.38Zm-50.22-20.06,8.1,26.13h.73l-1,2.87a2.48,2.48,0,0,1-2.46,1.83h-3a4,4,0,0,1-1.51-.26v6h5.07c4.59,0,6.89-2.72,7.94-6.27l9.4-30.31h-6.53l-4.86,18.29-5-18.29Zm-26.76,5.22h6v26.13h-10.71Zm-15.73,26.13v14h6.33V153.9H1018v8.73h6.33v-14h-4.91V117.32h-17.77L996,148.67Zm-49.27-31.35,5.8,14.42a5.22,5.22,0,0,0,2.92,2.93,4.85,4.85,0,0,0-3.13,3.18l-6.27,16.05h7.31l5.12-14.27c.53-1.62,1.15-2.25,2.41-2.25H959V153.9h6.37V137.38H968c1.3,0,1.88.63,2.45,2.25l5.12,14.27h7.32l-6.32-16.05a4.71,4.71,0,0,0-3.09-3.18,5.36,5.36,0,0,0,2.93-2.93l5.75-14.42h-7l-4.71,12.54c-.52,1.52-1.3,2.19-2.45,2.19h-2.67V117.32H959v14.73h-2.67c-1.15,0-1.93-.67-2.51-2.19l-4.65-12.54Zm-12.65,5.48a4.48,4.48,0,0,1,1.57.26v-5.74H911.32V153.9h20.44v-5.75a4.05,4.05,0,0,1-1.52.26H917.75v-11h8.73a8.37,8.37,0,0,1,1.52.16V131.9a8.31,8.31,0,0,1-1.52.15h-8.73V122.8Zm-32.56-5.48h-9.25l-5,21.37-5-21.37H868V153.9H874V124.84l5.12,20.75h6.64l5.12-20.75V153.9h6Zm-79.49,5.85h8.16c1,0,1.51.57,1.51,1.77v7c0,1.2-.52,1.78-1.51,1.78h-8.16Zm0,16.36H827.5c4.45,0,6-2.57,6-6.33v-9.51c0-3.76-1.72-6.37-6.17-6.37H811V153.9h6.42Zm-26.49-16.36h6.17a4.48,4.48,0,0,1,1.57.26v-6.11H776.81v6.11a4.48,4.48,0,0,1,1.57-.26h6.17V153.9h6.37Zm-32.87,14.21V153.9h6.43V117.32h-6.43v14.73h-9.66V117.32H742V153.9h6.44V137.38ZM727.38,122.8a4.43,4.43,0,0,1,1.56.26v-5.74h-19.7V153.9h20.43v-5.75a4,4,0,0,1-1.51.26H715.67v-11h8.73a8.17,8.17,0,0,1,1.51.16V131.9a8.13,8.13,0,0,1-1.51.15h-8.73V122.8ZM669,117.32V153.9h21.9v8.73h6.37V148.36h-5.85v-31H685.1v31h-9.78v-31Z"/><rect x="335.36" y="304.79" width="111.84" height="111.84"/><rect x="84.55" y="243.23" width="111.84" height="111.84"/><rect x="211.34" y="60.08" width="111.84" height="111.84"/><rect x="461.16" y="121.64" width="111.84" height="111.84"/><polygon class="a" points="323.19 297.38 211.35 355.06 211.35 243.22 323.19 185.54 323.19 297.38"/><polygon class="b" points="461.16 304.78 461.16 416.62 573 358.94 573 247.1 461.16 304.78"/><polygon class="c" points="196.38 60.08 84.55 117.77 84.55 229.6 196.38 171.92 196.38 60.08"/><polygon class="d" points="447.2 233.48 335.37 291.16 335.37 179.32 447.2 121.64 447.2 233.48"/></svg>